<?xml version="1.0" encoding="UTF-8" standalone="no"?><svg xmlns="http://www.w3.org/2000/svg" xmlns:xlink="http://www.w3.org/1999/xlink" contentScriptType="application/ecmascript" contentStyleType="text/css" height="1414px" preserveAspectRatio="none" style="width:2133px;height:1414px;background:#FFFFFF;" version="1.1" viewBox="0 0 2133 1414" width="2133px" zoomAndPan="magnify"><defs><filter height="300%" id="f8j2bmnsjh5is" width="300%" x="-1" y="-1"><feGaussianBlur result="blurOut" stdDeviation="2.0"/><feColorMatrix in="blurOut" result="blurOut2" type="matrix" values="0 0 0 0 0 0 0 0 0 0 0 0 0 0 0 0 0 0 .4 0"/><feOffset dx="4.0" dy="4.0" in="blurOut2" result="blurOut3"/><feBlend in="SourceGraphic" in2="blurOut3" mode="normal"/></filter></defs><g><!--MD5=[4bf8aff396996fef456cd268939daa24]
class Config--><rect codeLine="2" fill="#FEFECE" filter="url(#f8j2bmnsjh5is)" height="103.3438" id="Config" style="stroke:#A80036;stroke-width:1.5;" width="105" x="1403.5" y="152.5"/><ellipse cx="1435.15" cy="168.5" fill="#ADD1B2" rx="11" ry="11" style="stroke:#A80036;stroke-width:1.0;"/><path d="M1437.9156,164.375 Q1438.0719,164.1563 1438.2594,164.0469 Q1438.4469,163.9375 1438.6656,163.9375 Q1439.0406,163.9375 1439.275,164.2031 Q1439.5094,164.4531 1439.5094,165.0625 L1439.5094,166.5156 Q1439.5094,167.125 1439.275,167.3906 Q1439.0406,167.6563 1438.6656,167.6563 Q1438.3219,167.6563 1438.1188,167.4531 Q1437.9156,167.2656 1437.8063,166.75 Q1437.7594,166.3906 1437.5719,166.2031 Q1437.2438,165.8281 1436.6344,165.6094 Q1436.025,165.3906 1435.4,165.3906 Q1434.6344,165.3906 1433.9938,165.7188 Q1433.3688,166.0469 1432.8688,166.7969 Q1432.3844,167.5469 1432.3844,168.5781 L1432.3844,169.6719 Q1432.3844,170.9063 1433.275,171.7344 Q1434.1656,172.5469 1435.7594,172.5469 Q1436.6969,172.5469 1437.3531,172.2969 Q1437.7438,172.1406 1438.1656,171.7031 Q1438.4313,171.4375 1438.5719,171.3594 Q1438.7281,171.2813 1438.9313,171.2813 Q1439.2594,171.2813 1439.5094,171.5469 Q1439.775,171.7969 1439.775,172.1406 Q1439.775,172.4844 1439.4313,172.8906 Q1438.9313,173.4688 1438.1344,173.7969 Q1437.0563,174.25 1435.7594,174.25 Q1434.2438,174.25 1433.0406,173.625 Q1432.0563,173.125 1431.3688,172.0625 Q1430.6813,170.9844 1430.6813,169.7031 L1430.6813,168.5469 Q1430.6813,167.2188 1431.2906,166.0781 Q1431.9156,164.9219 1433.0094,164.3125 Q1434.1031,163.6875 1435.3375,163.6875 Q1436.0719,163.6875 1436.7125,163.8594 Q1437.3688,164.0156 1437.9156,164.375 Z " fill="#000000"/><text fill="#000000" font-family="sans-serif" font-size="12" lengthAdjust="spacing" textLength="36" x="1452.85" y="173.4102">Config</text><line style="stroke:#A80036;stroke-width:1.5;" x1="1404.5" x2="1507.5" y1="184.5" y2="184.5"/><rect fill="none" height="6" style="stroke:#C82930;stroke-width:1.0;" width="6" x="1411.5" y="192.5"/><text fill="#000000" font-family="sans-serif" font-size="11" lengthAdjust="spacing" text-decoration="underline" textLength="79" x="1423.5" y="199.9189">Config *instance</text><text fill="#000000" font-family="sans-serif" font-size="11" lengthAdjust="spacing" textLength="0" x="1426.5" y="213.7549"/><rect fill="none" height="6" style="stroke:#C82930;stroke-width:1.0;" width="6" x="1411.5" y="220.1719"/><text fill="#000000" font-family="sans-serif" font-size="11" lengthAdjust="spacing" textLength="9" x="1423.5" y="227.5908">...</text><line style="stroke:#A80036;stroke-width:1.5;" x1="1404.5" x2="1507.5" y1="234.0078" y2="234.0078"/><ellipse cx="1414.5" cy="245.0078" fill="#84BE84" rx="3" ry="3" style="stroke:#038048;stroke-width:1.0;"/><text fill="#000000" font-family="sans-serif" font-size="11" lengthAdjust="spacing" text-decoration="underline" textLength="57" x="1423.5" y="249.4268">Config get()</text><!--MD5=[10c50c2e3150e634e5ce95ceba89a534]
class Ant--><rect codeLine="10" fill="#FEFECE" filter="url(#f8j2bmnsjh5is)" height="255.5391" id="Ant" style="stroke:#A80036;stroke-width:1.5;" width="290" x="587" y="1145"/><ellipse cx="718.75" cy="1161" fill="#A9DCDF" rx="11" ry="11" style="stroke:#A80036;stroke-width:1.0;"/><path d="M720.9375,1162.7656 L716.7969,1162.7656 L716.375,1163.7969 L716.7969,1163.7969 Q717.4063,1163.7969 717.6719,1164.0313 Q717.9375,1164.2656 717.9375,1164.6563 Q717.9375,1165.0313 717.6719,1165.2656 Q717.4063,1165.5 716.7969,1165.5 L714.5,1165.5 Q713.8906,1165.5 713.6406,1165.2656 Q713.375,1165.0313 713.375,1164.6406 Q713.375,1164.2656 713.6563,1164.0313 Q713.9219,1163.7813 714.5469,1163.7969 L717.2188,1157.1406 L716.1094,1157.1406 Q715.5,1157.1406 715.2344,1156.9063 Q714.9688,1156.6719 714.9688,1156.2813 Q714.9688,1155.9063 715.2344,1155.6719 Q715.5,1155.4375 716.1094,1155.4375 L719.7813,1155.4375 L723.1719,1163.7969 Q723.7656,1163.7969 723.9531,1163.9375 Q724.3438,1164.2031 724.3438,1164.6563 Q724.3438,1165.0313 724.0781,1165.2656 Q723.8281,1165.5 723.2188,1165.5 L720.9219,1165.5 Q720.3125,1165.5 720.0469,1165.2656 Q719.7813,1165.0313 719.7813,1164.6406 Q719.7813,1164.2656 720.0469,1164.0313 Q720.3125,1163.7969 720.9219,1163.7969 L721.3438,1163.7969 L720.9375,1162.7656 Z M720.2188,1161.0625 L718.8594,1157.6875 L717.4844,1161.0625 L720.2188,1161.0625 Z " fill="#000000"/><text fill="#000000" font-family="sans-serif" font-size="12" font-style="italic" lengthAdjust="spacing" textLength="18" x="739.25" y="1165.9102">Ant</text><line style="stroke:#A80036;stroke-width:1.5;" x1="588" x2="876" y1="1177" y2="1177"/><rect fill="none" height="6" style="stroke:#C82930;stroke-width:1.0;" width="6" x="595" y="1185"/><text fill="#000000" font-family="sans-serif" font-size="11" lengthAdjust="spacing" text-decoration="underline" textLength="88" x="607" y="1192.4189">int colonyFood = 0</text><text fill="#000000" font-family="sans-serif" font-size="11" lengthAdjust="spacing" textLength="0" x="610" y="1206.2549"/><rect fill="none" height="6" style="stroke:#C82930;stroke-width:1.0;" width="6" x="595" y="1212.6719"/><text fill="#000000" font-family="sans-serif" font-size="11" lengthAdjust="spacing" textLength="101" x="607" y="1220.0908">BoardCell currentCell</text><rect fill="none" height="6" style="stroke:#C82930;stroke-width:1.0;" width="6" x="595" y="1226.5078"/><text fill="#000000" font-family="sans-serif" font-size="11" lengthAdjust="spacing" textLength="103" x="607" y="1233.9268">int hoursBeforeDeath</text><rect fill="none" height="6" style="stroke:#C82930;stroke-width:1.0;" width="6" x="595" y="1240.3438"/><text fill="#000000" font-family="sans-serif" font-size="11" lengthAdjust="spacing" textLength="130" x="607" y="1247.7627">int foodConsumedEachDay</text><rect fill="none" height="6" style="stroke:#C82930;stroke-width:1.0;" width="6" x="595" y="1254.1797"/><text fill="#000000" font-family="sans-serif" font-size="11" lengthAdjust="spacing" textLength="146" x="607" y="1261.5986">int hoursSinceLastFeeding = 0</text><rect fill="none" height="6" style="stroke:#C82930;stroke-width:1.0;" width="6" x="595" y="1268.0156"/><text fill="#000000" font-family="sans-serif" font-size="11" lengthAdjust="spacing" textLength="196" x="607" y="1275.4346">List&lt;BoardCell&gt; cellTraveledSinceColony</text><line style="stroke:#A80036;stroke-width:1.5;" x1="588" x2="876" y1="1281.8516" y2="1281.8516"/><ellipse cx="598" cy="1292.8516" fill="#84BE84" rx="3" ry="3" style="stroke:#038048;stroke-width:1.0;"/><text fill="#000000" font-family="sans-serif" font-size="11" lengthAdjust="spacing" textLength="264" x="607" y="1297.2705">Ant(int hoursBeforeDeath, int foodConsumedEachDay)</text><text fill="#000000" font-family="sans-serif" font-size="11" lengthAdjust="spacing" textLength="0" x="610" y="1311.1064"/><ellipse cx="598" cy="1320.5234" fill="#84BE84" rx="3" ry="3" style="stroke:#038048;stroke-width:1.0;"/><text fill="#000000" font-family="sans-serif" font-size="11" lengthAdjust="spacing" textLength="47" x="607" y="1324.9424">void tick()</text><ellipse cx="598" cy="1334.3594" fill="#84BE84" rx="3" ry="3" style="stroke:#038048;stroke-width:1.0;"/><text fill="#000000" font-family="sans-serif" font-size="11" lengthAdjust="spacing" textLength="143" x="607" y="1338.7783">boolean attackAnt(Ant target)</text><text fill="#000000" font-family="sans-serif" font-size="11" lengthAdjust="spacing" textLength="0" x="610" y="1352.6143"/><rect fill="#F24D5C" height="6" style="stroke:#C82930;stroke-width:1.0;" width="6" x="595" y="1359.0313"/><text fill="#000000" font-family="sans-serif" font-size="11" lengthAdjust="spacing" textLength="70" x="607" y="1366.4502">void eatFood()</text><rect fill="#F24D5C" height="6" style="stroke:#C82930;stroke-width:1.0;" width="6" x="595" y="1372.8672"/><text fill="#000000" font-family="sans-serif" font-size="11" lengthAdjust="spacing" textLength="106" x="607" y="1380.2861">void putPheromones()</text><rect fill="#F24D5C" height="6" style="stroke:#C82930;stroke-width:1.0;" width="6" x="595" y="1386.7031"/><text fill="#000000" font-family="sans-serif" font-size="11" lengthAdjust="spacing" textLength="42" x="607" y="1394.1221">void kill()</text><!--MD5=[b5524c1f1cf4f7aeecdc9b5af5b05d87]
class Queen--><rect codeLine="29" fill="#FEFECE" filter="url(#f8j2bmnsjh5is)" height="75.6719" id="Queen" style="stroke:#A80036;stroke-width:1.5;" width="174" x="335" y="940"/><ellipse cx="399.25" cy="956" fill="#ADD1B2" rx="11" ry="11" style="stroke:#A80036;stroke-width:1.0;"/><path d="M402.0156,951.875 Q402.1719,951.6563 402.3594,951.5469 Q402.5469,951.4375 402.7656,951.4375 Q403.1406,951.4375 403.375,951.7031 Q403.6094,951.9531 403.6094,952.5625 L403.6094,954.0156 Q403.6094,954.625 403.375,954.8906 Q403.1406,955.1563 402.7656,955.1563 Q402.4219,955.1563 402.2188,954.9531 Q402.0156,954.7656 401.9063,954.25 Q401.8594,953.8906 401.6719,953.7031 Q401.3438,953.3281 400.7344,953.1094 Q400.125,952.8906 399.5,952.8906 Q398.7344,952.8906 398.0938,953.2188 Q397.4688,953.5469 396.9688,954.2969 Q396.4844,955.0469 396.4844,956.0781 L396.4844,957.1719 Q396.4844,958.4063 397.375,959.2344 Q398.2656,960.0469 399.8594,960.0469 Q400.7969,960.0469 401.4531,959.7969 Q401.8438,959.6406 402.2656,959.2031 Q402.5313,958.9375 402.6719,958.8594 Q402.8281,958.7813 403.0313,958.7813 Q403.3594,958.7813 403.6094,959.0469 Q403.875,959.2969 403.875,959.6406 Q403.875,959.9844 403.5313,960.3906 Q403.0313,960.9688 402.2344,961.2969 Q401.1563,961.75 399.8594,961.75 Q398.3438,961.75 397.1406,961.125 Q396.1563,960.625 395.4688,959.5625 Q394.7813,958.4844 394.7813,957.2031 L394.7813,956.0469 Q394.7813,954.7188 395.3906,953.5781 Q396.0156,952.4219 397.1094,951.8125 Q398.2031,951.1875 399.4375,951.1875 Q400.1719,951.1875 400.8125,951.3594 Q401.4688,951.5156 402.0156,951.875 Z " fill="#000000"/><text fill="#000000" font-family="sans-serif" font-size="12" lengthAdjust="spacing" textLength="37" x="419.75" y="960.9102">Queen</text><line style="stroke:#A80036;stroke-width:1.5;" x1="336" x2="508" y1="972" y2="972"/><rect fill="none" height="6" style="stroke:#C82930;stroke-width:1.0;" width="6" x="343" y="980"/><text fill="#000000" font-family="sans-serif" font-size="11" lengthAdjust="spacing" textLength="67" x="355" y="987.4189">int nbChild = 0</text><rect fill="none" height="6" style="stroke:#C82930;stroke-width:1.0;" width="6" x="343" y="993.8359"/><text fill="#000000" font-family="sans-serif" font-size="11" lengthAdjust="spacing" textLength="148" x="355" y="1001.2549">boolean wasAssaulted = false</text><line style="stroke:#A80036;stroke-width:1.5;" x1="336" x2="508" y1="1007.6719" y2="1007.6719"/><!--MD5=[47db6eac60ecd119039426df650da054]
class AgeAdult--><rect codeLine="34" fill="#FEFECE" filter="url(#f8j2bmnsjh5is)" height="89.5078" id="AgeAdult" style="stroke:#A80036;stroke-width:1.5;" width="179" x="931.5" y="1228"/><ellipse cx="991.75" cy="1244" fill="#A9DCDF" rx="11" ry="11" style="stroke:#A80036;stroke-width:1.0;"/><path d="M993.9375,1245.7656 L989.7969,1245.7656 L989.375,1246.7969 L989.7969,1246.7969 Q990.4063,1246.7969 990.6719,1247.0313 Q990.9375,1247.2656 990.9375,1247.6563 Q990.9375,1248.0313 990.6719,1248.2656 Q990.4063,1248.5 989.7969,1248.5 L987.5,1248.5 Q986.8906,1248.5 986.6406,1248.2656 Q986.375,1248.0313 986.375,1247.6406 Q986.375,1247.2656 986.6563,1247.0313 Q986.9219,1246.7813 987.5469,1246.7969 L990.2188,1240.1406 L989.1094,1240.1406 Q988.5,1240.1406 988.2344,1239.9063 Q987.9688,1239.6719 987.9688,1239.2813 Q987.9688,1238.9063 988.2344,1238.6719 Q988.5,1238.4375 989.1094,1238.4375 L992.7813,1238.4375 L996.1719,1246.7969 Q996.7656,1246.7969 996.9531,1246.9375 Q997.3438,1247.2031 997.3438,1247.6563 Q997.3438,1248.0313 997.0781,1248.2656 Q996.8281,1248.5 996.2188,1248.5 L993.9219,1248.5 Q993.3125,1248.5 993.0469,1248.2656 Q992.7813,1248.0313 992.7813,1247.6406 Q992.7813,1247.2656 993.0469,1247.0313 Q993.3125,1246.7969 993.9219,1246.7969 L994.3438,1246.7969 L993.9375,1245.7656 Z M993.2188,1244.0625 L991.8594,1240.6875 L990.4844,1244.0625 L993.2188,1244.0625 Z " fill="#000000"/><text fill="#000000" font-family="sans-serif" font-size="12" font-style="italic" lengthAdjust="spacing" textLength="50" x="1012.25" y="1248.9102">AgeAdult</text><line style="stroke:#A80036;stroke-width:1.5;" x1="932.5" x2="1109.5" y1="1260" y2="1260"/><rect fill="none" height="6" style="stroke:#C82930;stroke-width:1.0;" width="6" x="939.5" y="1268"/><text fill="#000000" font-family="sans-serif" font-size="11" lengthAdjust="spacing" textLength="100" x="951.5" y="1275.4189">int hoursBeforeAdult</text><line style="stroke:#A80036;stroke-width:1.5;" x1="932.5" x2="1109.5" y1="1281.8359" y2="1281.8359"/><ellipse cx="942.5" cy="1292.8359" fill="#84BE84" rx="3" ry="3" style="stroke:#038048;stroke-width:1.0;"/><text fill="#000000" font-family="sans-serif" font-size="11" lengthAdjust="spacing" textLength="153" x="951.5" y="1297.2549">AgeAdult(int hoursBeforeAdult)</text><ellipse cx="942.5" cy="1306.6719" fill="#84BE84" rx="3" ry="3" style="stroke:#038048;stroke-width:1.0;"/><text fill="#000000" font-family="sans-serif" font-size="11" lengthAdjust="spacing" textLength="82" x="951.5" y="1311.0908">boolean isAdult()</text><!--MD5=[7b5bd88a8a025decccf0c9eac4aaabe9]
class Worker--><rect codeLine="42" fill="#FEFECE" filter="url(#f8j2bmnsjh5is)" height="103.3438" id="Worker" style="stroke:#A80036;stroke-width:1.5;" width="182" x="1009" y="926.5"/><ellipse cx="1076.25" cy="942.5" fill="#ADD1B2" rx="11" ry="11" style="stroke:#A80036;stroke-width:1.0;"/><path d="M1079.0156,938.375 Q1079.1719,938.1563 1079.3594,938.0469 Q1079.5469,937.9375 1079.7656,937.9375 Q1080.1406,937.9375 1080.375,938.2031 Q1080.6094,938.4531 1080.6094,939.0625 L1080.6094,940.5156 Q1080.6094,941.125 1080.375,941.3906 Q1080.1406,941.6563 1079.7656,941.6563 Q1079.4219,941.6563 1079.2188,941.4531 Q1079.0156,941.2656 1078.9063,940.75 Q1078.8594,940.3906 1078.6719,940.2031 Q1078.3438,939.8281 1077.7344,939.6094 Q1077.125,939.3906 1076.5,939.3906 Q1075.7344,939.3906 1075.0938,939.7188 Q1074.4688,940.0469 1073.9688,940.7969 Q1073.4844,941.5469 1073.4844,942.5781 L1073.4844,943.6719 Q1073.4844,944.9063 1074.375,945.7344 Q1075.2656,946.5469 1076.8594,946.5469 Q1077.7969,946.5469 1078.4531,946.2969 Q1078.8438,946.1406 1079.2656,945.7031 Q1079.5313,945.4375 1079.6719,945.3594 Q1079.8281,945.2813 1080.0313,945.2813 Q1080.3594,945.2813 1080.6094,945.5469 Q1080.875,945.7969 1080.875,946.1406 Q1080.875,946.4844 1080.5313,946.8906 Q1080.0313,947.4688 1079.2344,947.7969 Q1078.1563,948.25 1076.8594,948.25 Q1075.3438,948.25 1074.1406,947.625 Q1073.1563,947.125 1072.4688,946.0625 Q1071.7813,944.9844 1071.7813,943.7031 L1071.7813,942.5469 Q1071.7813,941.2188 1072.3906,940.0781 Q1073.0156,938.9219 1074.1094,938.3125 Q1075.2031,937.6875 1076.4375,937.6875 Q1077.1719,937.6875 1077.8125,937.8594 Q1078.4688,938.0156 1079.0156,938.375 Z " fill="#000000"/><text fill="#000000" font-family="sans-serif" font-size="12" lengthAdjust="spacing" textLength="39" x="1096.75" y="947.4102">Worker</text><line style="stroke:#A80036;stroke-width:1.5;" x1="1010" x2="1190" y1="958.5" y2="958.5"/><rect fill="none" height="6" style="stroke:#C82930;stroke-width:1.0;" width="6" x="1017" y="966.5"/><text fill="#000000" font-family="sans-serif" font-size="11" lengthAdjust="spacing" textLength="156" x="1029" y="973.9189">double pheromoneAmount = 500</text><rect fill="none" height="6" style="stroke:#C82930;stroke-width:1.0;" width="6" x="1017" y="980.3359"/><text fill="#000000" font-family="sans-serif" font-size="11" lengthAdjust="spacing" textLength="147" x="1029" y="987.7549">double foodCarriedAmount = 0</text><line style="stroke:#A80036;stroke-width:1.5;" x1="1010" x2="1190" y1="994.1719" y2="994.1719"/><rect fill="#F24D5C" height="6" style="stroke:#C82930;stroke-width:1.0;" width="6" x="1017" y="1002.1719"/><text fill="#000000" font-family="sans-serif" font-size="11" lengthAdjust="spacing" textLength="77" x="1029" y="1009.5908">void dropFood()</text><rect fill="#F24D5C" height="6" style="stroke:#C82930;stroke-width:1.0;" width="6" x="1017" y="1016.0078"/><text fill="#000000" font-family="sans-serif" font-size="11" lengthAdjust="spacing" textLength="83" x="1029" y="1023.4268">void visitColony()</text><!--MD5=[1ed6d5af90539a82e740abba43dd90d2]
class Scout--><rect codeLine="50" fill="#FEFECE" filter="url(#f8j2bmnsjh5is)" height="48" id="Scout" style="stroke:#A80036;stroke-width:1.5;" width="63" x="910.5" y="954"/><ellipse cx="925.5" cy="970" fill="#ADD1B2" rx="11" ry="11" style="stroke:#A80036;stroke-width:1.0;"/><path d="M928.2656,965.875 Q928.4219,965.6563 928.6094,965.5469 Q928.7969,965.4375 929.0156,965.4375 Q929.3906,965.4375 929.625,965.7031 Q929.8594,965.9531 929.8594,966.5625 L929.8594,968.0156 Q929.8594,968.625 929.625,968.8906 Q929.3906,969.1563 929.0156,969.1563 Q928.6719,969.1563 928.4688,968.9531 Q928.2656,968.7656 928.1563,968.25 Q928.1094,967.8906 927.9219,967.7031 Q927.5938,967.3281 926.9844,967.1094 Q926.375,966.8906 925.75,966.8906 Q924.9844,966.8906 924.3438,967.2188 Q923.7188,967.5469 923.2188,968.2969 Q922.7344,969.0469 922.7344,970.0781 L922.7344,971.1719 Q922.7344,972.4063 923.625,973.2344 Q924.5156,974.0469 926.1094,974.0469 Q927.0469,974.0469 927.7031,973.7969 Q928.0938,973.6406 928.5156,973.2031 Q928.7813,972.9375 928.9219,972.8594 Q929.0781,972.7813 929.2813,972.7813 Q929.6094,972.7813 929.8594,973.0469 Q930.125,973.2969 930.125,973.6406 Q930.125,973.9844 929.7813,974.3906 Q929.2813,974.9688 928.4844,975.2969 Q927.4063,975.75 926.1094,975.75 Q924.5938,975.75 923.3906,975.125 Q922.4063,974.625 921.7188,973.5625 Q921.0313,972.4844 921.0313,971.2031 L921.0313,970.0469 Q921.0313,968.7188 921.6406,967.5781 Q922.2656,966.4219 923.3594,965.8125 Q924.4531,965.1875 925.6875,965.1875 Q926.4219,965.1875 927.0625,965.3594 Q927.7188,965.5156 928.2656,965.875 Z " fill="#000000"/><text fill="#000000" font-family="sans-serif" font-size="12" lengthAdjust="spacing" textLength="31" x="939.5" y="974.9102">Scout</text><line style="stroke:#A80036;stroke-width:1.5;" x1="911.5" x2="972.5" y1="986" y2="986"/><line style="stroke:#A80036;stroke-width:1.5;" x1="911.5" x2="972.5" y1="994" y2="994"/><!--MD5=[ab18ab109d20d07a46d8dcc7319a218d]
class Soldier--><rect codeLine="54" fill="#FEFECE" filter="url(#f8j2bmnsjh5is)" height="61.8359" id="Soldier" style="stroke:#A80036;stroke-width:1.5;" width="179" x="544.5" y="947"/><ellipse cx="610.25" cy="963" fill="#ADD1B2" rx="11" ry="11" style="stroke:#A80036;stroke-width:1.0;"/><path d="M613.0156,958.875 Q613.1719,958.6563 613.3594,958.5469 Q613.5469,958.4375 613.7656,958.4375 Q614.1406,958.4375 614.375,958.7031 Q614.6094,958.9531 614.6094,959.5625 L614.6094,961.0156 Q614.6094,961.625 614.375,961.8906 Q614.1406,962.1563 613.7656,962.1563 Q613.4219,962.1563 613.2188,961.9531 Q613.0156,961.7656 612.9063,961.25 Q612.8594,960.8906 612.6719,960.7031 Q612.3438,960.3281 611.7344,960.1094 Q611.125,959.8906 610.5,959.8906 Q609.7344,959.8906 609.0938,960.2188 Q608.4688,960.5469 607.9688,961.2969 Q607.4844,962.0469 607.4844,963.0781 L607.4844,964.1719 Q607.4844,965.4063 608.375,966.2344 Q609.2656,967.0469 610.8594,967.0469 Q611.7969,967.0469 612.4531,966.7969 Q612.8438,966.6406 613.2656,966.2031 Q613.5313,965.9375 613.6719,965.8594 Q613.8281,965.7813 614.0313,965.7813 Q614.3594,965.7813 614.6094,966.0469 Q614.875,966.2969 614.875,966.6406 Q614.875,966.9844 614.5313,967.3906 Q614.0313,967.9688 613.2344,968.2969 Q612.1563,968.75 610.8594,968.75 Q609.3438,968.75 608.1406,968.125 Q607.1563,967.625 606.4688,966.5625 Q605.7813,965.4844 605.7813,964.2031 L605.7813,963.0469 Q605.7813,961.7188 606.3906,960.5781 Q607.0156,959.4219 608.1094,958.8125 Q609.2031,958.1875 610.4375,958.1875 Q611.1719,958.1875 611.8125,958.3594 Q612.4688,958.5156 613.0156,958.875 Z " fill="#000000"/><text fill="#000000" font-family="sans-serif" font-size="12" lengthAdjust="spacing" textLength="39" x="630.75" y="967.9102">Soldier</text><line style="stroke:#A80036;stroke-width:1.5;" x1="545.5" x2="722.5" y1="979" y2="979"/><rect fill="none" height="6" style="stroke:#C82930;stroke-width:1.0;" width="6" x="552.5" y="987"/><text fill="#000000" font-family="sans-serif" font-size="11" lengthAdjust="spacing" textLength="153" x="564.5" y="994.4189">int hoursSinceColonyVisited = 0</text><line style="stroke:#A80036;stroke-width:1.5;" x1="545.5" x2="722.5" y1="1000.8359" y2="1000.8359"/><!--MD5=[3ae62e8699855892a3f27b032d218027]
class SlaveOwner--><rect codeLine="58" fill="#FEFECE" filter="url(#f8j2bmnsjh5is)" height="61.8359" id="SlaveOwner" style="stroke:#A80036;stroke-width:1.5;" width="117" x="758.5" y="947"/><ellipse cx="782.05" cy="963" fill="#ADD1B2" rx="11" ry="11" style="stroke:#A80036;stroke-width:1.0;"/><path d="M784.8156,958.875 Q784.9719,958.6563 785.1594,958.5469 Q785.3469,958.4375 785.5656,958.4375 Q785.9406,958.4375 786.175,958.7031 Q786.4094,958.9531 786.4094,959.5625 L786.4094,961.0156 Q786.4094,961.625 786.175,961.8906 Q785.9406,962.1563 785.5656,962.1563 Q785.2219,962.1563 785.0188,961.9531 Q784.8156,961.7656 784.7063,961.25 Q784.6594,960.8906 784.4719,960.7031 Q784.1438,960.3281 783.5344,960.1094 Q782.925,959.8906 782.3,959.8906 Q781.5344,959.8906 780.8938,960.2188 Q780.2688,960.5469 779.7688,961.2969 Q779.2844,962.0469 779.2844,963.0781 L779.2844,964.1719 Q779.2844,965.4063 780.175,966.2344 Q781.0656,967.0469 782.6594,967.0469 Q783.5969,967.0469 784.2531,966.7969 Q784.6438,966.6406 785.0656,966.2031 Q785.3313,965.9375 785.4719,965.8594 Q785.6281,965.7813 785.8313,965.7813 Q786.1594,965.7813 786.4094,966.0469 Q786.675,966.2969 786.675,966.6406 Q786.675,966.9844 786.3313,967.3906 Q785.8313,967.9688 785.0344,968.2969 Q783.9563,968.75 782.6594,968.75 Q781.1438,968.75 779.9406,968.125 Q778.9563,967.625 778.2688,966.5625 Q777.5813,965.4844 777.5813,964.2031 L777.5813,963.0469 Q777.5813,961.7188 778.1906,960.5781 Q778.8156,959.4219 779.9094,958.8125 Q781.0031,958.1875 782.2375,958.1875 Q782.9719,958.1875 783.6125,958.3594 Q784.2688,958.5156 784.8156,958.875 Z " fill="#000000"/><text fill="#000000" font-family="sans-serif" font-size="12" lengthAdjust="spacing" textLength="66" x="797.95" y="967.9102">SlaveOwner</text><line style="stroke:#A80036;stroke-width:1.5;" x1="759.5" x2="874.5" y1="979" y2="979"/><rect fill="none" height="6" style="stroke:#C82930;stroke-width:1.0;" width="6" x="766.5" y="987"/><text fill="#000000" font-family="sans-serif" font-size="11" lengthAdjust="spacing" textLength="91" x="778.5" y="994.4189">int larvaCarried = 0</text><line style="stroke:#A80036;stroke-width:1.5;" x1="759.5" x2="874.5" y1="1000.8359" y2="1000.8359"/><!--MD5=[525b825935c44044e0207a90f6a24613]
class BoardCell--><rect codeLine="62" fill="#FEFECE" filter="url(#f8j2bmnsjh5is)" height="186.3594" id="BoardCell" style="stroke:#A80036;stroke-width:1.5;" width="214" x="86" y="885"/><ellipse cx="161.25" cy="901" fill="#A9DCDF" rx="11" ry="11" style="stroke:#A80036;stroke-width:1.0;"/><path d="M163.4375,902.7656 L159.2969,902.7656 L158.875,903.7969 L159.2969,903.7969 Q159.9063,903.7969 160.1719,904.0313 Q160.4375,904.2656 160.4375,904.6563 Q160.4375,905.0313 160.1719,905.2656 Q159.9063,905.5 159.2969,905.5 L157,905.5 Q156.3906,905.5 156.1406,905.2656 Q155.875,905.0313 155.875,904.6406 Q155.875,904.2656 156.1563,904.0313 Q156.4219,903.7813 157.0469,903.7969 L159.7188,897.1406 L158.6094,897.1406 Q158,897.1406 157.7344,896.9063 Q157.4688,896.6719 157.4688,896.2813 Q157.4688,895.9063 157.7344,895.6719 Q158,895.4375 158.6094,895.4375 L162.2813,895.4375 L165.6719,903.7969 Q166.2656,903.7969 166.4531,903.9375 Q166.8438,904.2031 166.8438,904.6563 Q166.8438,905.0313 166.5781,905.2656 Q166.3281,905.5 165.7188,905.5 L163.4219,905.5 Q162.8125,905.5 162.5469,905.2656 Q162.2813,905.0313 162.2813,904.6406 Q162.2813,904.2656 162.5469,904.0313 Q162.8125,903.7969 163.4219,903.7969 L163.8438,903.7969 L163.4375,902.7656 Z M162.7188,901.0625 L161.3594,897.6875 L159.9844,901.0625 L162.7188,901.0625 Z " fill="#000000"/><text fill="#000000" font-family="sans-serif" font-size="12" font-style="italic" lengthAdjust="spacing" textLength="55" x="181.75" y="905.9102">BoardCell</text><line style="stroke:#A80036;stroke-width:1.5;" x1="87" x2="299" y1="917" y2="917"/><rect fill="none" height="6" style="stroke:#C82930;stroke-width:1.0;" width="6" x="94" y="925"/><text fill="#000000" font-family="sans-serif" font-size="11" lengthAdjust="spacing" textLength="65" x="106" y="932.4189">int posLength</text><rect fill="none" height="6" style="stroke:#C82930;stroke-width:1.0;" width="6" x="94" y="938.8359"/><text fill="#000000" font-family="sans-serif" font-size="11" lengthAdjust="spacing" textLength="62" x="106" y="946.2549">int posHeight</text><rect fill="none" height="6" style="stroke:#C82930;stroke-width:1.0;" width="6" x="94" y="952.6719"/><text fill="#000000" font-family="sans-serif" font-size="11" lengthAdjust="spacing" textLength="144" x="106" y="960.0908">double pheromoneAmount = 0</text><rect fill="none" height="6" style="stroke:#C82930;stroke-width:1.0;" width="6" x="94" y="966.5078"/><text fill="#000000" font-family="sans-serif" font-size="11" lengthAdjust="spacing" textLength="108" x="106" y="973.9268">boolean visited = false</text><rect fill="none" height="6" style="stroke:#C82930;stroke-width:1.0;" width="6" x="94" y="980.3438"/><text fill="#000000" font-family="sans-serif" font-size="11" lengthAdjust="spacing" textLength="100" x="106" y="987.7627">int maxAntOnCell = 0</text><rect fill="none" height="6" style="stroke:#C82930;stroke-width:1.0;" width="6" x="94" y="994.1797"/><text fill="#000000" font-family="sans-serif" font-size="11" lengthAdjust="spacing" textLength="95" x="106" y="1001.5986">List&lt;Ant&gt; antOnCell</text><line style="stroke:#A80036;stroke-width:1.5;" x1="87" x2="299" y1="1008.0156" y2="1008.0156"/><ellipse cx="97" cy="1019.0156" fill="#84BE84" rx="3" ry="3" style="stroke:#038048;stroke-width:1.0;"/><text fill="#000000" font-family="sans-serif" font-size="11" lengthAdjust="spacing" textLength="188" x="106" y="1023.4346">BoardCell(int x, int y, int maxAntOnCell)</text><ellipse cx="97" cy="1032.8516" fill="#84BE84" rx="3" ry="3" style="stroke:#038048;stroke-width:1.0;"/><text fill="#000000" font-family="sans-serif" font-size="11" lengthAdjust="spacing" textLength="47" x="106" y="1037.2705">void tick()</text><ellipse cx="97" cy="1046.6875" fill="#84BE84" rx="3" ry="3" style="stroke:#038048;stroke-width:1.0;"/><text fill="#000000" font-family="sans-serif" font-size="11" lengthAdjust="spacing" textLength="104" x="106" y="1051.1064">boolean haveSpace()</text><rect fill="#F24D5C" height="6" style="stroke:#C82930;stroke-width:1.0;" width="6" x="94" y="1057.5234"/><text fill="#000000" font-family="sans-serif" font-size="11" lengthAdjust="spacing" textLength="134" x="106" y="1064.9424">void pheromoneSpreading()</text><!--MD5=[39a16cba8891fff0dec12a03f10f2d1e]
class RockCell--><rect codeLine="76" fill="#FEFECE" filter="url(#f8j2bmnsjh5is)" height="48" id="RockCell" style="stroke:#A80036;stroke-width:1.5;" width="82" x="7" y="673"/><ellipse cx="22" cy="689" fill="#ADD1B2" rx="11" ry="11" style="stroke:#A80036;stroke-width:1.0;"/><path d="M24.7656,684.875 Q24.9219,684.6563 25.1094,684.5469 Q25.2969,684.4375 25.5156,684.4375 Q25.8906,684.4375 26.125,684.7031 Q26.3594,684.9531 26.3594,685.5625 L26.3594,687.0156 Q26.3594,687.625 26.125,687.8906 Q25.8906,688.1563 25.5156,688.1563 Q25.1719,688.1563 24.9688,687.9531 Q24.7656,687.7656 24.6563,687.25 Q24.6094,686.8906 24.4219,686.7031 Q24.0938,686.3281 23.4844,686.1094 Q22.875,685.8906 22.25,685.8906 Q21.4844,685.8906 20.8438,686.2188 Q20.2188,686.5469 19.7188,687.2969 Q19.2344,688.0469 19.2344,689.0781 L19.2344,690.1719 Q19.2344,691.4063 20.125,692.2344 Q21.0156,693.0469 22.6094,693.0469 Q23.5469,693.0469 24.2031,692.7969 Q24.5938,692.6406 25.0156,692.2031 Q25.2813,691.9375 25.4219,691.8594 Q25.5781,691.7813 25.7813,691.7813 Q26.1094,691.7813 26.3594,692.0469 Q26.625,692.2969 26.625,692.6406 Q26.625,692.9844 26.2813,693.3906 Q25.7813,693.9688 24.9844,694.2969 Q23.9063,694.75 22.6094,694.75 Q21.0938,694.75 19.8906,694.125 Q18.9063,693.625 18.2188,692.5625 Q17.5313,691.4844 17.5313,690.2031 L17.5313,689.0469 Q17.5313,687.7188 18.1406,686.5781 Q18.7656,685.4219 19.8594,684.8125 Q20.9531,684.1875 22.1875,684.1875 Q22.9219,684.1875 23.5625,684.3594 Q24.2188,684.5156 24.7656,684.875 Z " fill="#000000"/><text fill="#000000" font-family="sans-serif" font-size="12" lengthAdjust="spacing" textLength="50" x="36" y="693.9102">RockCell</text><line style="stroke:#A80036;stroke-width:1.5;" x1="8" x2="88" y1="705" y2="705"/><line style="stroke:#A80036;stroke-width:1.5;" x1="8" x2="88" y1="713" y2="713"/><!--MD5=[513b7970bc1b83c4a36d0554b8f08ac6]
class BasicCell--><rect codeLine="80" fill="#FEFECE" filter="url(#f8j2bmnsjh5is)" height="75.6719" id="BasicCell" style="stroke:#A80036;stroke-width:1.5;" width="138" x="124" y="659"/><ellipse cx="162.85" cy="675" fill="#ADD1B2" rx="11" ry="11" style="stroke:#A80036;stroke-width:1.0;"/><path d="M165.6156,670.875 Q165.7719,670.6563 165.9594,670.5469 Q166.1469,670.4375 166.3656,670.4375 Q166.7406,670.4375 166.975,670.7031 Q167.2094,670.9531 167.2094,671.5625 L167.2094,673.0156 Q167.2094,673.625 166.975,673.8906 Q166.7406,674.1563 166.3656,674.1563 Q166.0219,674.1563 165.8188,673.9531 Q165.6156,673.7656 165.5063,673.25 Q165.4594,672.8906 165.2719,672.7031 Q164.9438,672.3281 164.3344,672.1094 Q163.725,671.8906 163.1,671.8906 Q162.3344,671.8906 161.6938,672.2188 Q161.0688,672.5469 160.5688,673.2969 Q160.0844,674.0469 160.0844,675.0781 L160.0844,676.1719 Q160.0844,677.4063 160.975,678.2344 Q161.8656,679.0469 163.4594,679.0469 Q164.3969,679.0469 165.0531,678.7969 Q165.4438,678.6406 165.8656,678.2031 Q166.1313,677.9375 166.2719,677.8594 Q166.4281,677.7813 166.6313,677.7813 Q166.9594,677.7813 167.2094,678.0469 Q167.475,678.2969 167.475,678.6406 Q167.475,678.9844 167.1313,679.3906 Q166.6313,679.9688 165.8344,680.2969 Q164.7563,680.75 163.4594,680.75 Q161.9438,680.75 160.7406,680.125 Q159.7563,679.625 159.0688,678.5625 Q158.3813,677.4844 158.3813,676.2031 L158.3813,675.0469 Q158.3813,673.7188 158.9906,672.5781 Q159.6156,671.4219 160.7094,670.8125 Q161.8031,670.1875 163.0375,670.1875 Q163.7719,670.1875 164.4125,670.3594 Q165.0688,670.5156 165.6156,670.875 Z " fill="#000000"/><text fill="#000000" font-family="sans-serif" font-size="12" lengthAdjust="spacing" textLength="53" x="182.15" y="679.9102">BasicCell</text><line style="stroke:#A80036;stroke-width:1.5;" x1="125" x2="261" y1="691" y2="691"/><rect fill="none" height="6" style="stroke:#C82930;stroke-width:1.0;" width="6" x="132" y="699"/><text fill="#000000" font-family="sans-serif" font-size="11" lengthAdjust="spacing" textLength="112" x="144" y="706.4189">double foodAmount = 0</text><line style="stroke:#A80036;stroke-width:1.5;" x1="125" x2="261" y1="712.8359" y2="712.8359"/><ellipse cx="135" cy="723.8359" fill="#84BE84" rx="3" ry="3" style="stroke:#038048;stroke-width:1.0;"/><text fill="#000000" font-family="sans-serif" font-size="11" lengthAdjust="spacing" textLength="110" x="144" y="728.2549">void takeFood(Ant ant)</text><!--MD5=[6d119b44992baabada00dd3a8b3b7f3e]
class ColonyCell--><rect codeLine="86" fill="#FEFECE" filter="url(#f8j2bmnsjh5is)" height="48" id="ColonyCell" style="stroke:#A80036;stroke-width:1.5;" width="92" x="297" y="673"/><ellipse cx="312" cy="689" fill="#ADD1B2" rx="11" ry="11" style="stroke:#A80036;stroke-width:1.0;"/><path d="M314.7656,684.875 Q314.9219,684.6563 315.1094,684.5469 Q315.2969,684.4375 315.5156,684.4375 Q315.8906,684.4375 316.125,684.7031 Q316.3594,684.9531 316.3594,685.5625 L316.3594,687.0156 Q316.3594,687.625 316.125,687.8906 Q315.8906,688.1563 315.5156,688.1563 Q315.1719,688.1563 314.9688,687.9531 Q314.7656,687.7656 314.6563,687.25 Q314.6094,686.8906 314.4219,686.7031 Q314.0938,686.3281 313.4844,686.1094 Q312.875,685.8906 312.25,685.8906 Q311.4844,685.8906 310.8438,686.2188 Q310.2188,686.5469 309.7188,687.2969 Q309.2344,688.0469 309.2344,689.0781 L309.2344,690.1719 Q309.2344,691.4063 310.125,692.2344 Q311.0156,693.0469 312.6094,693.0469 Q313.5469,693.0469 314.2031,692.7969 Q314.5938,692.6406 315.0156,692.2031 Q315.2813,691.9375 315.4219,691.8594 Q315.5781,691.7813 315.7813,691.7813 Q316.1094,691.7813 316.3594,692.0469 Q316.625,692.2969 316.625,692.6406 Q316.625,692.9844 316.2813,693.3906 Q315.7813,693.9688 314.9844,694.2969 Q313.9063,694.75 312.6094,694.75 Q311.0938,694.75 309.8906,694.125 Q308.9063,693.625 308.2188,692.5625 Q307.5313,691.4844 307.5313,690.2031 L307.5313,689.0469 Q307.5313,687.7188 308.1406,686.5781 Q308.7656,685.4219 309.8594,684.8125 Q310.9531,684.1875 312.1875,684.1875 Q312.9219,684.1875 313.5625,684.3594 Q314.2188,684.5156 314.7656,684.875 Z " fill="#000000"/><text fill="#000000" font-family="sans-serif" font-size="12" lengthAdjust="spacing" textLength="60" x="326" y="693.9102">ColonyCell</text><line style="stroke:#A80036;stroke-width:1.5;" x1="298" x2="388" y1="705" y2="705"/><line style="stroke:#A80036;stroke-width:1.5;" x1="298" x2="388" y1="713" y2="713"/><!--MD5=[9563755d011c5cec7ec66dc53565a59e]
class Board--><rect codeLine="90" fill="#FEFECE" filter="url(#f8j2bmnsjh5is)" height="117.1797" id="Board" style="stroke:#A80036;stroke-width:1.5;" width="314" x="1155" y="638.5"/><ellipse cx="1291.25" cy="654.5" fill="#ADD1B2" rx="11" ry="11" style="stroke:#A80036;stroke-width:1.0;"/><path d="M1294.0156,650.375 Q1294.1719,650.1563 1294.3594,650.0469 Q1294.5469,649.9375 1294.7656,649.9375 Q1295.1406,649.9375 1295.375,650.2031 Q1295.6094,650.4531 1295.6094,651.0625 L1295.6094,652.5156 Q1295.6094,653.125 1295.375,653.3906 Q1295.1406,653.6563 1294.7656,653.6563 Q1294.4219,653.6563 1294.2188,653.4531 Q1294.0156,653.2656 1293.9063,652.75 Q1293.8594,652.3906 1293.6719,652.2031 Q1293.3438,651.8281 1292.7344,651.6094 Q1292.125,651.3906 1291.5,651.3906 Q1290.7344,651.3906 1290.0938,651.7188 Q1289.4688,652.0469 1288.9688,652.7969 Q1288.4844,653.5469 1288.4844,654.5781 L1288.4844,655.6719 Q1288.4844,656.9063 1289.375,657.7344 Q1290.2656,658.5469 1291.8594,658.5469 Q1292.7969,658.5469 1293.4531,658.2969 Q1293.8438,658.1406 1294.2656,657.7031 Q1294.5313,657.4375 1294.6719,657.3594 Q1294.8281,657.2813 1295.0313,657.2813 Q1295.3594,657.2813 1295.6094,657.5469 Q1295.875,657.7969 1295.875,658.1406 Q1295.875,658.4844 1295.5313,658.8906 Q1295.0313,659.4688 1294.2344,659.7969 Q1293.1563,660.25 1291.8594,660.25 Q1290.3438,660.25 1289.1406,659.625 Q1288.1563,659.125 1287.4688,658.0625 Q1286.7813,656.9844 1286.7813,655.7031 L1286.7813,654.5469 Q1286.7813,653.2188 1287.3906,652.0781 Q1288.0156,650.9219 1289.1094,650.3125 Q1290.2031,649.6875 1291.4375,649.6875 Q1292.1719,649.6875 1292.8125,649.8594 Q1293.4688,650.0156 1294.0156,650.375 Z " fill="#000000"/><text fill="#000000" font-family="sans-serif" font-size="12" lengthAdjust="spacing" textLength="33" x="1311.75" y="659.4102">Board</text><line style="stroke:#A80036;stroke-width:1.5;" x1="1156" x2="1468" y1="670.5" y2="670.5"/><rect fill="none" height="6" style="stroke:#C82930;stroke-width:1.0;" width="6" x="1163" y="678.5"/><text fill="#000000" font-family="sans-serif" font-size="11" lengthAdjust="spacing" textLength="83" x="1175" y="685.9189">BoardCell[][] cells</text><rect fill="none" height="6" style="stroke:#C82930;stroke-width:1.0;" width="6" x="1163" y="692.3359"/><text fill="#000000" font-family="sans-serif" font-size="11" lengthAdjust="spacing" textLength="145" x="1175" y="699.7549">List&lt;ColonyCell&gt; coloniesCells</text><line style="stroke:#A80036;stroke-width:1.5;" x1="1156" x2="1468" y1="706.1719" y2="706.1719"/><ellipse cx="1166" cy="717.1719" fill="#84BE84" rx="3" ry="3" style="stroke:#038048;stroke-width:1.0;"/><text fill="#000000" font-family="sans-serif" font-size="11" lengthAdjust="spacing" textLength="288" x="1175" y="721.5908">Board(List&lt;BoardCell&gt; cells, List&lt;ColonyCell&gt; coloniesCells)</text><text fill="#000000" font-family="sans-serif" font-size="11" lengthAdjust="spacing" textLength="0" x="1178" y="735.4268"/><ellipse cx="1166" cy="744.8438" fill="#84BE84" rx="3" ry="3" style="stroke:#038048;stroke-width:1.0;"/><text fill="#000000" font-family="sans-serif" font-size="11" lengthAdjust="spacing" textLength="224" x="1175" y="749.2627">List&lt;BoardCell&gt; getNearbyCells(BoardCell cell)</text><!--MD5=[dd7d696a0ce3e176ad9f9adf3e4f6c7c]
class BoardGenerator--><rect codeLine="99" fill="#FEFECE" filter="url(#f8j2bmnsjh5is)" height="158.6875" id="BoardGenerator" style="stroke:#A80036;stroke-width:1.5;" width="165" x="1432.5" y="898.5"/><ellipse cx="1467.75" cy="914.5" fill="#ADD1B2" rx="11" ry="11" style="stroke:#A80036;stroke-width:1.0;"/><path d="M1470.5156,910.375 Q1470.6719,910.1563 1470.8594,910.0469 Q1471.0469,909.9375 1471.2656,909.9375 Q1471.6406,909.9375 1471.875,910.2031 Q1472.1094,910.4531 1472.1094,911.0625 L1472.1094,912.5156 Q1472.1094,913.125 1471.875,913.3906 Q1471.6406,913.6563 1471.2656,913.6563 Q1470.9219,913.6563 1470.7188,913.4531 Q1470.5156,913.2656 1470.4063,912.75 Q1470.3594,912.3906 1470.1719,912.2031 Q1469.8438,911.8281 1469.2344,911.6094 Q1468.625,911.3906 1468,911.3906 Q1467.2344,911.3906 1466.5938,911.7188 Q1465.9688,912.0469 1465.4688,912.7969 Q1464.9844,913.5469 1464.9844,914.5781 L1464.9844,915.6719 Q1464.9844,916.9063 1465.875,917.7344 Q1466.7656,918.5469 1468.3594,918.5469 Q1469.2969,918.5469 1469.9531,918.2969 Q1470.3438,918.1406 1470.7656,917.7031 Q1471.0313,917.4375 1471.1719,917.3594 Q1471.3281,917.2813 1471.5313,917.2813 Q1471.8594,917.2813 1472.1094,917.5469 Q1472.375,917.7969 1472.375,918.1406 Q1472.375,918.4844 1472.0313,918.8906 Q1471.5313,919.4688 1470.7344,919.7969 Q1469.6563,920.25 1468.3594,920.25 Q1466.8438,920.25 1465.6406,919.625 Q1464.6563,919.125 1463.9688,918.0625 Q1463.2813,916.9844 1463.2813,915.7031 L1463.2813,914.5469 Q1463.2813,913.2188 1463.8906,912.0781 Q1464.5156,910.9219 1465.6094,910.3125 Q1466.7031,909.6875 1467.9375,909.6875 Q1468.6719,909.6875 1469.3125,909.8594 Q1469.9688,910.0156 1470.5156,910.375 Z " fill="#000000"/><text fill="#000000" font-family="sans-serif" font-size="12" lengthAdjust="spacing" textLength="88" x="1486.25" y="919.4102">BoardGenerator</text><line style="stroke:#A80036;stroke-width:1.5;" x1="1433.5" x2="1596.5" y1="930.5" y2="930.5"/><rect fill="none" height="6" style="stroke:#C82930;stroke-width:1.0;" width="6" x="1440.5" y="938.5"/><text fill="#000000" font-family="sans-serif" font-size="11" lengthAdjust="spacing" textLength="83" x="1452.5" y="945.9189">BoardCell[][] cells</text><rect fill="none" height="6" style="stroke:#C82930;stroke-width:1.0;" width="6" x="1440.5" y="952.3359"/><text fill="#000000" font-family="sans-serif" font-size="11" lengthAdjust="spacing" textLength="139" x="1452.5" y="959.7549">List&lt;ColonyCell&gt; coloniesCell</text><line style="stroke:#A80036;stroke-width:1.5;" x1="1433.5" x2="1596.5" y1="966.1719" y2="966.1719"/><ellipse cx="1443.5" cy="977.1719" fill="#84BE84" rx="3" ry="3" style="stroke:#038048;stroke-width:1.0;"/><text fill="#000000" font-family="sans-serif" font-size="11" lengthAdjust="spacing" text-decoration="underline" textLength="112" x="1452.5" y="981.5908">Board generateBoard()</text><text fill="#000000" font-family="sans-serif" font-size="11" lengthAdjust="spacing" textLength="0" x="1455.5" y="995.4268"/><rect fill="#F24D5C" height="6" style="stroke:#C82930;stroke-width:1.0;" width="6" x="1440.5" y="1001.8438"/><text fill="#000000" font-family="sans-serif" font-size="11" lengthAdjust="spacing" textLength="98" x="1452.5" y="1009.2627">void generateRock()</text><rect fill="#F24D5C" height="6" style="stroke:#C82930;stroke-width:1.0;" width="6" x="1440.5" y="1015.6797"/><text fill="#000000" font-family="sans-serif" font-size="11" lengthAdjust="spacing" textLength="133" x="1452.5" y="1023.0986">void generateClassicFood()</text><rect fill="#F24D5C" height="6" style="stroke:#C82930;stroke-width:1.0;" width="6" x="1440.5" y="1029.5156"/><text fill="#000000" font-family="sans-serif" font-size="11" lengthAdjust="spacing" textLength="113" x="1452.5" y="1036.9346">void generateBigFood()</text><rect fill="#F24D5C" height="6" style="stroke:#C82930;stroke-width:1.0;" width="6" x="1440.5" y="1043.3516"/><text fill="#000000" font-family="sans-serif" font-size="11" lengthAdjust="spacing" textLength="107" x="1452.5" y="1050.7705">void generateColony()</text><!--MD5=[e36a4c0f7055b067b077b74a1222e806]
class Simulation--><rect codeLine="111" fill="#FEFECE" filter="url(#f8j2bmnsjh5is)" height="61.8359" id="Simulation" style="stroke:#A80036;stroke-width:1.5;" width="101" x="1653.5" y="461"/><ellipse cx="1673" cy="477" fill="#ADD1B2" rx="11" ry="11" style="stroke:#A80036;stroke-width:1.0;"/><path d="M1675.7656,472.875 Q1675.9219,472.6563 1676.1094,472.5469 Q1676.2969,472.4375 1676.5156,472.4375 Q1676.8906,472.4375 1677.125,472.7031 Q1677.3594,472.9531 1677.3594,473.5625 L1677.3594,475.0156 Q1677.3594,475.625 1677.125,475.8906 Q1676.8906,476.1563 1676.5156,476.1563 Q1676.1719,476.1563 1675.9688,475.9531 Q1675.7656,475.7656 1675.6563,475.25 Q1675.6094,474.8906 1675.4219,474.7031 Q1675.0938,474.3281 1674.4844,474.1094 Q1673.875,473.8906 1673.25,473.8906 Q1672.4844,473.8906 1671.8438,474.2188 Q1671.2188,474.5469 1670.7188,475.2969 Q1670.2344,476.0469 1670.2344,477.0781 L1670.2344,478.1719 Q1670.2344,479.4063 1671.125,480.2344 Q1672.0156,481.0469 1673.6094,481.0469 Q1674.5469,481.0469 1675.2031,480.7969 Q1675.5938,480.6406 1676.0156,480.2031 Q1676.2813,479.9375 1676.4219,479.8594 Q1676.5781,479.7813 1676.7813,479.7813 Q1677.1094,479.7813 1677.3594,480.0469 Q1677.625,480.2969 1677.625,480.6406 Q1677.625,480.9844 1677.2813,481.3906 Q1676.7813,481.9688 1675.9844,482.2969 Q1674.9063,482.75 1673.6094,482.75 Q1672.0938,482.75 1670.8906,482.125 Q1669.9063,481.625 1669.2188,480.5625 Q1668.5313,479.4844 1668.5313,478.2031 L1668.5313,477.0469 Q1668.5313,475.7188 1669.1406,474.5781 Q1669.7656,473.4219 1670.8594,472.8125 Q1671.9531,472.1875 1673.1875,472.1875 Q1673.9219,472.1875 1674.5625,472.3594 Q1675.2188,472.5156 1675.7656,472.875 Z " fill="#000000"/><text fill="#000000" font-family="sans-serif" font-size="12" lengthAdjust="spacing" textLength="59" x="1688" y="481.9102">Simulation</text><line style="stroke:#A80036;stroke-width:1.5;" x1="1654.5" x2="1753.5" y1="493" y2="493"/><line style="stroke:#A80036;stroke-width:1.5;" x1="1654.5" x2="1753.5" y1="501" y2="501"/><ellipse cx="1664.5" cy="512" fill="#84BE84" rx="3" ry="3" style="stroke:#038048;stroke-width:1.0;"/><text fill="#000000" font-family="sans-serif" font-size="11" lengthAdjust="spacing" textLength="75" x="1673.5" y="516.4189">void runGame()</text><!--MD5=[1dc8045a3dab386ccc37dc0f2fde32e2]
class GUIMain--><rect codeLine="115" fill="#FEFECE" filter="url(#f8j2bmnsjh5is)" height="393.8984" id="GUIMain" style="stroke:#A80036;stroke-width:1.5;" width="320" x="1544" y="7"/><ellipse cx="1676.25" cy="23" fill="#ADD1B2" rx="11" ry="11" style="stroke:#A80036;stroke-width:1.0;"/><path d="M1679.0156,18.875 Q1679.1719,18.6563 1679.3594,18.5469 Q1679.5469,18.4375 1679.7656,18.4375 Q1680.1406,18.4375 1680.375,18.7031 Q1680.6094,18.9531 1680.6094,19.5625 L1680.6094,21.0156 Q1680.6094,21.625 1680.375,21.8906 Q1680.1406,22.1563 1679.7656,22.1563 Q1679.4219,22.1563 1679.2188,21.9531 Q1679.0156,21.7656 1678.9063,21.25 Q1678.8594,20.8906 1678.6719,20.7031 Q1678.3438,20.3281 1677.7344,20.1094 Q1677.125,19.8906 1676.5,19.8906 Q1675.7344,19.8906 1675.0938,20.2188 Q1674.4688,20.5469 1673.9688,21.2969 Q1673.4844,22.0469 1673.4844,23.0781 L1673.4844,24.1719 Q1673.4844,25.4063 1674.375,26.2344 Q1675.2656,27.0469 1676.8594,27.0469 Q1677.7969,27.0469 1678.4531,26.7969 Q1678.8438,26.6406 1679.2656,26.2031 Q1679.5313,25.9375 1679.6719,25.8594 Q1679.8281,25.7813 1680.0313,25.7813 Q1680.3594,25.7813 1680.6094,26.0469 Q1680.875,26.2969 1680.875,26.6406 Q1680.875,26.9844 1680.5313,27.3906 Q1680.0313,27.9688 1679.2344,28.2969 Q1678.1563,28.75 1676.8594,28.75 Q1675.3438,28.75 1674.1406,28.125 Q1673.1563,27.625 1672.4688,26.5625 Q1671.7813,25.4844 1671.7813,24.2031 L1671.7813,23.0469 Q1671.7813,21.7188 1672.3906,20.5781 Q1673.0156,19.4219 1674.1094,18.8125 Q1675.2031,18.1875 1676.4375,18.1875 Q1677.1719,18.1875 1677.8125,18.3594 Q1678.4688,18.5156 1679.0156,18.875 Z " fill="#000000"/><text fill="#000000" font-family="sans-serif" font-size="12" lengthAdjust="spacing" textLength="47" x="1696.75" y="27.9102">GUIMain</text><line style="stroke:#A80036;stroke-width:1.5;" x1="1545" x2="1863" y1="39" y2="39"/><rect fill="none" height="6" style="stroke:#C82930;stroke-width:1.0;" width="6" x="1552" y="47"/><text fill="#000000" font-family="sans-serif" font-size="11" lengthAdjust="spacing" textLength="67" x="1564" y="54.4189">Board *board;</text><rect fill="none" height="6" style="stroke:#C82930;stroke-width:1.0;" width="6" x="1552" y="60.8359"/><text fill="#000000" font-family="sans-serif" font-size="11" lengthAdjust="spacing" textLength="64" x="1564" y="68.2549">Game *game;</text><rect fill="none" height="6" style="stroke:#C82930;stroke-width:1.0;" width="6" x="1552" y="74.6719"/><text fill="#000000" font-family="sans-serif" font-size="11" lengthAdjust="spacing" textLength="107" x="1564" y="82.0908">SimulationStats *stats;</text><rect fill="none" height="6" style="stroke:#C82930;stroke-width:1.0;" width="6" x="1552" y="88.5078"/><text fill="#000000" font-family="sans-serif" font-size="11" lengthAdjust="spacing" textLength="133" x="1564" y="95.9268">bool waitReleaseGameKey;</text><text fill="#000000" font-family="sans-serif" font-size="11" lengthAdjust="spacing" textLength="0" x="1567" y="109.7627"/><rect fill="none" height="6" style="stroke:#C82930;stroke-width:1.0;" width="6" x="1552" y="116.1797"/><text fill="#000000" font-family="sans-serif" font-size="11" lengthAdjust="spacing" textLength="141" x="1564" y="123.5986">sf::RenderWindow *window;</text><rect fill="none" height="6" style="stroke:#C82930;stroke-width:1.0;" width="6" x="1552" y="130.0156"/><text fill="#000000" font-family="sans-serif" font-size="11" lengthAdjust="spacing" textLength="90" x="1564" y="137.4346">sf::View simView;</text><rect fill="none" height="6" style="stroke:#C82930;stroke-width:1.0;" width="6" x="1552" y="143.8516"/><text fill="#000000" font-family="sans-serif" font-size="11" lengthAdjust="spacing" textLength="92" x="1564" y="151.2705">sf::View statView;</text><text fill="#000000" font-family="sans-serif" font-size="11" lengthAdjust="spacing" textLength="0" x="1567" y="165.1064"/><rect fill="none" height="6" style="stroke:#C82930;stroke-width:1.0;" width="6" x="1552" y="171.5234"/><text fill="#000000" font-family="sans-serif" font-size="11" lengthAdjust="spacing" textLength="97" x="1564" y="178.9424">sf::Vector2f oldPos;</text><rect fill="none" height="6" style="stroke:#C82930;stroke-width:1.0;" width="6" x="1552" y="185.3594"/><text fill="#000000" font-family="sans-serif" font-size="11" lengthAdjust="spacing" textLength="60" x="1564" y="192.7783">bool moving;</text><rect fill="none" height="6" style="stroke:#C82930;stroke-width:1.0;" width="6" x="1552" y="199.1953"/><text fill="#000000" font-family="sans-serif" font-size="11" lengthAdjust="spacing" textLength="53" x="1564" y="206.6143">float zoom;</text><rect fill="none" height="6" style="stroke:#C82930;stroke-width:1.0;" width="6" x="1552" y="213.0313"/><text fill="#000000" font-family="sans-serif" font-size="11" lengthAdjust="spacing" textLength="89" x="1564" y="220.4502">float currentZoom;</text><line style="stroke:#A80036;stroke-width:1.5;" x1="1545" x2="1863" y1="226.8672" y2="226.8672"/><rect fill="#F24D5C" height="6" style="stroke:#C82930;stroke-width:1.0;" width="6" x="1552" y="234.8672"/><text fill="#000000" font-family="sans-serif" font-size="11" lengthAdjust="spacing" textLength="140" x="1564" y="242.2861">void runUI(sf::Mutex *mutex);</text><rect fill="#F24D5C" height="6" style="stroke:#C82930;stroke-width:1.0;" width="6" x="1552" y="248.7031"/><text fill="#000000" font-family="sans-serif" font-size="11" lengthAdjust="spacing" textLength="142" x="1564" y="256.1221">void smoothOnKeyPressed();</text><rect fill="#F24D5C" height="6" style="stroke:#C82930;stroke-width:1.0;" width="6" x="1552" y="262.5391"/><text fill="#000000" font-family="sans-serif" font-size="11" lengthAdjust="spacing" textLength="79" x="1564" y="269.958">void onClosed();</text><rect fill="#F24D5C" height="6" style="stroke:#C82930;stroke-width:1.0;" width="6" x="1552" y="276.375"/><text fill="#000000" font-family="sans-serif" font-size="11" lengthAdjust="spacing" textLength="222" x="1564" y="283.7939">void onMouseButtonPressed(sf::Event event);</text><rect fill="#F24D5C" height="6" style="stroke:#C82930;stroke-width:1.0;" width="6" x="1552" y="290.2109"/><text fill="#000000" font-family="sans-serif" font-size="11" lengthAdjust="spacing" textLength="227" x="1564" y="297.6299">void onMouseButtonReleased(sf::Event event);</text><rect fill="#F24D5C" height="6" style="stroke:#C82930;stroke-width:1.0;" width="6" x="1552" y="304.0469"/><text fill="#000000" font-family="sans-serif" font-size="11" lengthAdjust="spacing" textLength="183" x="1564" y="311.4658">void onMouseMoved(sf::Event event);</text><rect fill="#F24D5C" height="6" style="stroke:#C82930;stroke-width:1.0;" width="6" x="1552" y="317.8828"/><text fill="#000000" font-family="sans-serif" font-size="11" lengthAdjust="spacing" textLength="220" x="1564" y="325.3018">void onMouseWheelScrolled(sf::Event event);</text><rect fill="#F24D5C" height="6" style="stroke:#C82930;stroke-width:1.0;" width="6" x="1552" y="331.7188"/><text fill="#000000" font-family="sans-serif" font-size="11" lengthAdjust="spacing" textLength="158" x="1564" y="339.1377">void onResized(sf::Event event);</text><rect fill="#F24D5C" height="6" style="stroke:#C82930;stroke-width:1.0;" width="6" x="1552" y="345.5547"/><text fill="#000000" font-family="sans-serif" font-size="11" lengthAdjust="spacing" textLength="65" x="1564" y="352.9736">void center();</text><rect fill="#F24D5C" height="6" style="stroke:#C82930;stroke-width:1.0;" width="6" x="1552" y="359.3906"/><text fill="#000000" font-family="sans-serif" font-size="11" lengthAdjust="spacing" textLength="236" x="1564" y="366.8096">void preventOutOfBorder(sf::Vector2f deltaPos);</text><rect fill="#F24D5C" height="6" style="stroke:#C82930;stroke-width:1.0;" width="6" x="1552" y="373.2266"/><text fill="#000000" font-family="sans-serif" font-size="11" lengthAdjust="spacing" textLength="294" x="1564" y="380.6455">void letterBoxView(float windowWidth, float windowHeight);</text><rect fill="#F24D5C" height="6" style="stroke:#C82930;stroke-width:1.0;" width="6" x="1552" y="387.0625"/><text fill="#000000" font-family="sans-serif" font-size="11" lengthAdjust="spacing" textLength="158" x="1564" y="394.4814">static sf::Vector2f getMapSize();</text><!--MD5=[b6dcce5e5ef3c84b0b048d11301373dd]
class Game--><rect codeLine="145" fill="#FEFECE" filter="url(#f8j2bmnsjh5is)" height="227.8672" id="Game" style="stroke:#A80036;stroke-width:1.5;" width="180" x="1939" y="583"/><ellipse cx="2007.75" cy="599" fill="#ADD1B2" rx="11" ry="11" style="stroke:#A80036;stroke-width:1.0;"/><path d="M2010.5156,594.875 Q2010.6719,594.6563 2010.8594,594.5469 Q2011.0469,594.4375 2011.2656,594.4375 Q2011.6406,594.4375 2011.875,594.7031 Q2012.1094,594.9531 2012.1094,595.5625 L2012.1094,597.0156 Q2012.1094,597.625 2011.875,597.8906 Q2011.6406,598.1563 2011.2656,598.1563 Q2010.9219,598.1563 2010.7188,597.9531 Q2010.5156,597.7656 2010.4063,597.25 Q2010.3594,596.8906 2010.1719,596.7031 Q2009.8438,596.3281 2009.2344,596.1094 Q2008.625,595.8906 2008,595.8906 Q2007.2344,595.8906 2006.5938,596.2188 Q2005.9688,596.5469 2005.4688,597.2969 Q2004.9844,598.0469 2004.9844,599.0781 L2004.9844,600.1719 Q2004.9844,601.4063 2005.875,602.2344 Q2006.7656,603.0469 2008.3594,603.0469 Q2009.2969,603.0469 2009.9531,602.7969 Q2010.3438,602.6406 2010.7656,602.2031 Q2011.0313,601.9375 2011.1719,601.8594 Q2011.3281,601.7813 2011.5313,601.7813 Q2011.8594,601.7813 2012.1094,602.0469 Q2012.375,602.2969 2012.375,602.6406 Q2012.375,602.9844 2012.0313,603.3906 Q2011.5313,603.9688 2010.7344,604.2969 Q2009.6563,604.75 2008.3594,604.75 Q2006.8438,604.75 2005.6406,604.125 Q2004.6563,603.625 2003.9688,602.5625 Q2003.2813,601.4844 2003.2813,600.2031 L2003.2813,599.0469 Q2003.2813,597.7188 2003.8906,596.5781 Q2004.5156,595.4219 2005.6094,594.8125 Q2006.7031,594.1875 2007.9375,594.1875 Q2008.6719,594.1875 2009.3125,594.3594 Q2009.9688,594.5156 2010.5156,594.875 Z " fill="#000000"/><text fill="#000000" font-family="sans-serif" font-size="12" lengthAdjust="spacing" textLength="34" x="2028.25" y="603.9102">Game</text><line style="stroke:#A80036;stroke-width:1.5;" x1="1940" x2="2118" y1="615" y2="615"/><rect fill="none" height="6" style="stroke:#C82930;stroke-width:1.0;" width="6" x="1947" y="623"/><text fill="#000000" font-family="sans-serif" font-size="11" lengthAdjust="spacing" textLength="92" x="1959" y="630.4189">bool pause = false;</text><rect fill="none" height="6" style="stroke:#C82930;stroke-width:1.0;" width="6" x="1947" y="636.8359"/><text fill="#000000" font-family="sans-serif" font-size="11" lengthAdjust="spacing" textLength="67" x="1959" y="644.2549">Board *board;</text><rect fill="none" height="6" style="stroke:#C82930;stroke-width:1.0;" width="6" x="1947" y="650.6719"/><text fill="#000000" font-family="sans-serif" font-size="11" lengthAdjust="spacing" textLength="107" x="1959" y="658.0908">SimulationStats *stats;</text><rect fill="none" height="6" style="stroke:#C82930;stroke-width:1.0;" width="6" x="1947" y="664.5078"/><text fill="#000000" font-family="sans-serif" font-size="11" lengthAdjust="spacing" textLength="154" x="1959" y="671.9268">string gnuPlotFile = "gnuplot.txt";</text><rect fill="none" height="6" style="stroke:#C82930;stroke-width:1.0;" width="6" x="1947" y="678.3438"/><text fill="#000000" font-family="sans-serif" font-size="11" lengthAdjust="spacing" textLength="102" x="1959" y="685.7627">string bufferGNUPlot;</text><line style="stroke:#A80036;stroke-width:1.5;" x1="1940" x2="2118" y1="692.1797" y2="692.1797"/><rect fill="#F24D5C" height="6" style="stroke:#C82930;stroke-width:1.0;" width="6" x="1947" y="700.1797"/><text fill="#000000" font-family="sans-serif" font-size="11" lengthAdjust="spacing" textLength="73" x="1959" y="707.5986">void tickAnts();</text><rect fill="#F24D5C" height="6" style="stroke:#C82930;stroke-width:1.0;" width="6" x="1947" y="714.0156"/><text fill="#000000" font-family="sans-serif" font-size="11" lengthAdjust="spacing" textLength="82" x="1959" y="721.4346">void tickQueen();</text><text fill="#000000" font-family="sans-serif" font-size="11" lengthAdjust="spacing" textLength="0" x="1962" y="735.2705"/><ellipse cx="1950" cy="744.6875" fill="#84BE84" rx="3" ry="3" style="stroke:#038048;stroke-width:1.0;"/><text fill="#000000" font-family="sans-serif" font-size="11" lengthAdjust="spacing" textLength="78" x="1959" y="749.1064">void tickGame();</text><ellipse cx="1950" cy="758.5234" fill="#84BE84" rx="3" ry="3" style="stroke:#038048;stroke-width:1.0;"/><text fill="#000000" font-family="sans-serif" font-size="11" lengthAdjust="spacing" textLength="113" x="1959" y="762.9424">void saveCurrentTick();</text><ellipse cx="1950" cy="772.3594" fill="#84BE84" rx="3" ry="3" style="stroke:#038048;stroke-width:1.0;"/><text fill="#000000" font-family="sans-serif" font-size="11" lengthAdjust="spacing" textLength="87" x="1959" y="776.7783">void logGNUPlot();</text><ellipse cx="1950" cy="786.1953" fill="#84BE84" rx="3" ry="3" style="stroke:#038048;stroke-width:1.0;"/><text fill="#000000" font-family="sans-serif" font-size="11" lengthAdjust="spacing" textLength="102" x="1959" y="790.6143">bool isPause() const;</text><ellipse cx="1950" cy="800.0313" fill="#84BE84" rx="3" ry="3" style="stroke:#038048;stroke-width:1.0;"/><text fill="#000000" font-family="sans-serif" font-size="11" lengthAdjust="spacing" textLength="132" x="1959" y="804.4502">void setPause(bool pause);</text><!--MD5=[fad578b1554339f864f53ac41ef33b28]
class SimulationStats--><rect codeLine="162" fill="#FEFECE" filter="url(#f8j2bmnsjh5is)" height="214.0313" id="SimulationStats" style="stroke:#A80036;stroke-width:1.5;" width="400" x="1504" y="590"/><ellipse cx="1656.25" cy="606" fill="#ADD1B2" rx="11" ry="11" style="stroke:#A80036;stroke-width:1.0;"/><path d="M1659.0156,601.875 Q1659.1719,601.6563 1659.3594,601.5469 Q1659.5469,601.4375 1659.7656,601.4375 Q1660.1406,601.4375 1660.375,601.7031 Q1660.6094,601.9531 1660.6094,602.5625 L1660.6094,604.0156 Q1660.6094,604.625 1660.375,604.8906 Q1660.1406,605.1563 1659.7656,605.1563 Q1659.4219,605.1563 1659.2188,604.9531 Q1659.0156,604.7656 1658.9063,604.25 Q1658.8594,603.8906 1658.6719,603.7031 Q1658.3438,603.3281 1657.7344,603.1094 Q1657.125,602.8906 1656.5,602.8906 Q1655.7344,602.8906 1655.0938,603.2188 Q1654.4688,603.5469 1653.9688,604.2969 Q1653.4844,605.0469 1653.4844,606.0781 L1653.4844,607.1719 Q1653.4844,608.4063 1654.375,609.2344 Q1655.2656,610.0469 1656.8594,610.0469 Q1657.7969,610.0469 1658.4531,609.7969 Q1658.8438,609.6406 1659.2656,609.2031 Q1659.5313,608.9375 1659.6719,608.8594 Q1659.8281,608.7813 1660.0313,608.7813 Q1660.3594,608.7813 1660.6094,609.0469 Q1660.875,609.2969 1660.875,609.6406 Q1660.875,609.9844 1660.5313,610.3906 Q1660.0313,610.9688 1659.2344,611.2969 Q1658.1563,611.75 1656.8594,611.75 Q1655.3438,611.75 1654.1406,611.125 Q1653.1563,610.625 1652.4688,609.5625 Q1651.7813,608.4844 1651.7813,607.2031 L1651.7813,606.0469 Q1651.7813,604.7188 1652.3906,603.5781 Q1653.0156,602.4219 1654.1094,601.8125 Q1655.2031,601.1875 1656.4375,601.1875 Q1657.1719,601.1875 1657.8125,601.3594 Q1658.4688,601.5156 1659.0156,601.875 Z " fill="#000000"/><text fill="#000000" font-family="sans-serif" font-size="12" lengthAdjust="spacing" textLength="87" x="1676.75" y="610.9102">SimulationStats</text><line style="stroke:#A80036;stroke-width:1.5;" x1="1505" x2="1903" y1="622" y2="622"/><rect fill="none" height="6" style="stroke:#C82930;stroke-width:1.0;" width="6" x="1512" y="630"/><text fill="#000000" font-family="sans-serif" font-size="11" lengthAdjust="spacing" textLength="71" x="1524" y="637.4189">int currentTPS;</text><rect fill="none" height="6" style="stroke:#C82930;stroke-width:1.0;" width="6" x="1512" y="643.8359"/><text fill="#000000" font-family="sans-serif" font-size="11" lengthAdjust="spacing" textLength="73" x="1524" y="651.2549">int wantedTPS;</text><rect fill="none" height="6" style="stroke:#C82930;stroke-width:1.0;" width="6" x="1512" y="657.6719"/><text fill="#000000" font-family="sans-serif" font-size="11" lengthAdjust="spacing" textLength="86" x="1524" y="665.0908">float foodAmount;</text><rect fill="none" height="6" style="stroke:#C82930;stroke-width:1.0;" width="6" x="1512" y="671.5078"/><text fill="#000000" font-family="sans-serif" font-size="11" lengthAdjust="spacing" textLength="92" x="1524" y="678.9268">bool isGameEnded;</text><rect fill="none" height="6" style="stroke:#C82930;stroke-width:1.0;" width="6" x="1512" y="685.3438"/><text fill="#000000" font-family="sans-serif" font-size="11" lengthAdjust="spacing" textLength="95" x="1524" y="692.7627">string endMessage;</text><rect fill="none" height="6" style="stroke:#C82930;stroke-width:1.0;" width="6" x="1512" y="699.1797"/><text fill="#000000" font-family="sans-serif" font-size="11" lengthAdjust="spacing" textLength="89" x="1524" y="706.5986">int workerAmount;</text><rect fill="none" height="6" style="stroke:#C82930;stroke-width:1.0;" width="6" x="1512" y="713.0156"/><text fill="#000000" font-family="sans-serif" font-size="11" lengthAdjust="spacing" textLength="86" x="1524" y="720.4346">int soldierAmount;</text><rect fill="none" height="6" style="stroke:#C82930;stroke-width:1.0;" width="6" x="1512" y="726.8516"/><text fill="#000000" font-family="sans-serif" font-size="11" lengthAdjust="spacing" textLength="81" x="1524" y="734.2705">int scoutAmount;</text><rect fill="none" height="6" style="stroke:#C82930;stroke-width:1.0;" width="6" x="1512" y="740.6875"/><text fill="#000000" font-family="sans-serif" font-size="11" lengthAdjust="spacing" textLength="114" x="1524" y="748.1064">int slaveOwnerAmount;</text><rect fill="none" height="6" style="stroke:#C82930;stroke-width:1.0;" width="6" x="1512" y="754.5234"/><text fill="#000000" font-family="sans-serif" font-size="11" lengthAdjust="spacing" textLength="88" x="1524" y="761.9424">sf::Texture tileSet;</text><rect fill="none" height="6" style="stroke:#C82930;stroke-width:1.0;" width="6" x="1512" y="768.3594"/><text fill="#000000" font-family="sans-serif" font-size="11" lengthAdjust="spacing" textLength="62" x="1524" y="775.7783">sf::Font font;</text><line style="stroke:#A80036;stroke-width:1.5;" x1="1505" x2="1903" y1="782.1953" y2="782.1953"/><rect fill="#F24D5C" height="6" style="stroke:#C82930;stroke-width:1.0;" width="6" x="1512" y="790.1953"/><text fill="#000000" font-family="sans-serif" font-size="11" lengthAdjust="spacing" textLength="374" x="1524" y="797.6143">void draw(sf::RenderTarget &amp;target, sf::RenderStates states) const override;</text><!--MD5=[24064d68d6b286fd59e7694529a932dc]
class TileEnum--><rect codeLine="178" fill="#FEFECE" filter="url(#f8j2bmnsjh5is)" height="214.0313" id="TileEnum" style="stroke:#A80036;stroke-width:1.5;" width="171" x="1226.5" y="871"/><ellipse cx="1281.25" cy="887" fill="#EB937F" rx="11" ry="11" style="stroke:#A80036;stroke-width:1.0;"/><path d="M1280.1094,887.7969 L1280.1094,890.2969 L1284.4375,890.2969 L1284.4375,889.375 Q1284.4375,888.7656 1284.6719,888.5 Q1284.9219,888.2344 1285.2969,888.2344 Q1285.6719,888.2344 1285.9063,888.5 Q1286.1406,888.7656 1286.1406,889.375 L1286.1406,892 L1278.1406,892 Q1277.5156,892 1277.25,891.7656 Q1277,891.5313 1277,891.1406 Q1277,890.7656 1277.2656,890.5313 Q1277.5313,890.2969 1278.1406,890.2969 L1278.4063,890.2969 L1278.4063,883.6406 L1278.1406,883.6406 Q1277.5156,883.6406 1277.25,883.4063 Q1277,883.1719 1277,882.7813 Q1277,882.4063 1277.25,882.1719 Q1277.5156,881.9375 1278.1406,881.9375 L1285.7656,881.9375 L1285.7656,884.5313 Q1285.7656,885.1406 1285.5313,885.4063 Q1285.3125,885.6563 1284.9219,885.6563 Q1284.5469,885.6563 1284.3125,885.4063 Q1284.0781,885.1406 1284.0781,884.5313 L1284.0781,883.6406 L1280.1094,883.6406 L1280.1094,886.0938 L1281.5938,886.0938 Q1281.5938,885.4375 1281.7188,885.25 Q1281.9844,884.8438 1282.4531,884.8438 Q1282.8281,884.8438 1283.0625,885.1094 Q1283.2969,885.3594 1283.2969,885.9688 L1283.2969,887.9375 Q1283.2969,888.4844 1283.1719,888.6719 Q1282.9063,889.0625 1282.4531,889.0625 Q1281.9844,889.0625 1281.7188,888.6563 Q1281.5938,888.4688 1281.5938,887.7969 L1280.1094,887.7969 Z " fill="#000000"/><text fill="#000000" font-family="sans-serif" font-size="12" lengthAdjust="spacing" textLength="53" x="1301.75" y="891.9102">TileEnum</text><line style="stroke:#A80036;stroke-width:1.5;" x1="1227.5" x2="1396.5" y1="903" y2="903"/><text fill="#000000" font-family="sans-serif" font-size="11" lengthAdjust="spacing" textLength="93" x="1232.5" y="918.4189">BASIC_FLOOR = 0,</text><text fill="#000000" font-family="sans-serif" font-size="11" lengthAdjust="spacing" textLength="91" x="1232.5" y="932.2549">ROCK_FLOOR = 5,</text><text fill="#000000" font-family="sans-serif" font-size="11" lengthAdjust="spacing" textLength="106" x="1232.5" y="946.0908">COLONY_FLOOR = 9,</text><text fill="#000000" font-family="sans-serif" font-size="11" lengthAdjust="spacing" textLength="97" x="1232.5" y="959.9268">FOOD_LAYER = 10,</text><text fill="#000000" font-family="sans-serif" font-size="11" lengthAdjust="spacing" textLength="120" x="1232.5" y="973.7627">BIG_FOOD_LAYER = 11,</text><text fill="#000000" font-family="sans-serif" font-size="11" lengthAdjust="spacing" textLength="103" x="1232.5" y="987.5986">CLOUD_LAYER = 14,</text><text fill="#000000" font-family="sans-serif" font-size="11" lengthAdjust="spacing" textLength="61" x="1232.5" y="1001.4346">QUEEN = 24,</text><text fill="#000000" font-family="sans-serif" font-size="11" lengthAdjust="spacing" textLength="99" x="1232.5" y="1015.2705">WORKER_ANT = 15,</text><text fill="#000000" font-family="sans-serif" font-size="11" lengthAdjust="spacing" textLength="97" x="1232.5" y="1029.1064">SOLDIER_ANT = 25,</text><text fill="#000000" font-family="sans-serif" font-size="11" lengthAdjust="spacing" textLength="90" x="1232.5" y="1042.9424">SCOOT_ANT = 35,</text><text fill="#000000" font-family="sans-serif" font-size="11" lengthAdjust="spacing" textLength="127" x="1232.5" y="1056.7783">SLAVEOWNER_ANT = 45,</text><text fill="#000000" font-family="sans-serif" font-size="11" lengthAdjust="spacing" textLength="159" x="1232.5" y="1070.6143">FIRST_PHEROMONE_LEVEL = 55</text><line style="stroke:#A80036;stroke-width:1.5;" x1="1227.5" x2="1396.5" y1="1077.0313" y2="1077.0313"/><!--MD5=[630deb9ca358f01922be9b487b80131a]
class Drawable--><rect fill="#FEFECE" filter="url(#f8j2bmnsjh5is)" height="48" id="Drawable" style="stroke:#A80036;stroke-width:1.5;" width="85" x="1647.5" y="954"/><ellipse cx="1662.5" cy="970" fill="#ADD1B2" rx="11" ry="11" style="stroke:#A80036;stroke-width:1.0;"/><path d="M1665.2656,965.875 Q1665.4219,965.6563 1665.6094,965.5469 Q1665.7969,965.4375 1666.0156,965.4375 Q1666.3906,965.4375 1666.625,965.7031 Q1666.8594,965.9531 1666.8594,966.5625 L1666.8594,968.0156 Q1666.8594,968.625 1666.625,968.8906 Q1666.3906,969.1563 1666.0156,969.1563 Q1665.6719,969.1563 1665.4688,968.9531 Q1665.2656,968.7656 1665.1563,968.25 Q1665.1094,967.8906 1664.9219,967.7031 Q1664.5938,967.3281 1663.9844,967.1094 Q1663.375,966.8906 1662.75,966.8906 Q1661.9844,966.8906 1661.3438,967.2188 Q1660.7188,967.5469 1660.2188,968.2969 Q1659.7344,969.0469 1659.7344,970.0781 L1659.7344,971.1719 Q1659.7344,972.4063 1660.625,973.2344 Q1661.5156,974.0469 1663.1094,974.0469 Q1664.0469,974.0469 1664.7031,973.7969 Q1665.0938,973.6406 1665.5156,973.2031 Q1665.7813,972.9375 1665.9219,972.8594 Q1666.0781,972.7813 1666.2813,972.7813 Q1666.6094,972.7813 1666.8594,973.0469 Q1667.125,973.2969 1667.125,973.6406 Q1667.125,973.9844 1666.7813,974.3906 Q1666.2813,974.9688 1665.4844,975.2969 Q1664.4063,975.75 1663.1094,975.75 Q1661.5938,975.75 1660.3906,975.125 Q1659.4063,974.625 1658.7188,973.5625 Q1658.0313,972.4844 1658.0313,971.2031 L1658.0313,970.0469 Q1658.0313,968.7188 1658.6406,967.5781 Q1659.2656,966.4219 1660.3594,965.8125 Q1661.4531,965.1875 1662.6875,965.1875 Q1663.4219,965.1875 1664.0625,965.3594 Q1664.7188,965.5156 1665.2656,965.875 Z " fill="#000000"/><text fill="#000000" font-family="sans-serif" font-size="12" lengthAdjust="spacing" textLength="53" x="1676.5" y="974.9102">Drawable</text><line style="stroke:#A80036;stroke-width:1.5;" x1="1648.5" x2="1731.5" y1="986" y2="986"/><line style="stroke:#A80036;stroke-width:1.5;" x1="1648.5" x2="1731.5" y1="994" y2="994"/><!--MD5=[50b7ab07d87583486c6abdc206afcdcf]
link RockCell to BoardCell--><path codeLine="194" d="M59.94,721.4 C71.62,744.28 89.96,780.07 106,811 C115.42,829.17 125.47,848.43 135.26,867.15 " fill="none" id="RockCell-to-BoardCell" style="stroke:#A80036;stroke-width:1.0;"/><polygon fill="none" points="141.47,863.91,144.54,884.88,129.06,870.41,141.47,863.91" style="stroke:#A80036;stroke-width:1.0;"/><!--MD5=[442aeae1c8ed6d9a9a9f0af56067098a]
link BasicCell to BoardCell--><path codeLine="195" d="M193,735.05 C193,768.17 193,818.46 193,864.63 " fill="none" id="BasicCell-to-BoardCell" style="stroke:#A80036;stroke-width:1.0;"/><polygon fill="none" points="200,864.78,193,884.78,186,864.78,200,864.78" style="stroke:#A80036;stroke-width:1.0;"/><!--MD5=[2adfba80fcb48633ccd3c25fa18e5648]
link ColonyCell to BoardCell--><path codeLine="196" d="M330.47,721.31 C313.23,753.37 281.05,813.23 252.15,866.98 " fill="none" id="ColonyCell-to-BoardCell" style="stroke:#A80036;stroke-width:1.0;"/><polygon fill="none" points="258.14,870.62,242.5,884.92,245.81,863.99,258.14,870.62" style="stroke:#A80036;stroke-width:1.0;"/><!--MD5=[9c91955d4c4b6685ef3d6494719c909e]
link Board to Drawable--><path codeLine="198" d="M1395.49,755.62 C1423.72,774.17 1455.75,794.25 1486,811 C1541.32,841.63 1566.44,830.5 1615,871 C1636.56,888.98 1654.89,914.55 1668.03,936.07 " fill="none" id="Board-to-Drawable" style="stroke:#A80036;stroke-width:1.0;"/><polygon fill="none" points="1674.24,932.83,1678.2,953.65,1662.12,939.84,1674.24,932.83" style="stroke:#A80036;stroke-width:1.0;"/><!--MD5=[6f26c122f64c0790f24e49cfd5a959fc]
link SimulationStats to Drawable--><path codeLine="199" d="M1698.67,804.27 C1696.41,849.25 1693.91,899.11 1692.18,933.65 " fill="none" id="SimulationStats-to-Drawable" style="stroke:#A80036;stroke-width:1.0;"/><polygon fill="none" points="1699.15,934.31,1691.16,953.93,1685.17,933.61,1699.15,934.31" style="stroke:#A80036;stroke-width:1.0;"/><!--MD5=[2c2530d53c879d1c82bc2a8bc5e4d1a7]
link Simulation to SimulationStats--><path codeLine="201" d="M1704,523.39 C1704,541.42 1704,565.46 1704,589.87 " fill="none" id="Simulation-SimulationStats" style="stroke:#A80036;stroke-width:1.0;"/><!--MD5=[d8d028306a1cad11acbec1bbcb0abc6d]
link Simulation to Game--><path codeLine="202" d="M1754.77,507.43 C1800.74,521.98 1869.01,547.39 1921,583 C1927.04,587.14 1933.02,591.66 1938.86,596.45 " fill="none" id="Simulation-Game" style="stroke:#A80036;stroke-width:1.0;"/><!--MD5=[99fdd1e5e2a67afbdf5524954a26ebd1]
link Simulation to Board--><path codeLine="203" d="M1653.46,510.83 C1608.49,527.41 1541.46,553.86 1486,583 C1454.91,599.33 1422.26,619.62 1393.75,638.47 " fill="none" id="Simulation-Board" style="stroke:#A80036;stroke-width:1.0;"/><!--MD5=[4107eb32685d525a7b20dcf00098751a]
link GUIMain to Simulation--><path codeLine="204" d="M1704,401.29 C1704,424.3 1704,445.15 1704,460.95 " fill="none" id="GUIMain-Simulation" style="stroke:#A80036;stroke-width:1.0;"/><!--MD5=[255c74516b03c1a69d7234c145becf97]
link Board to BoardGenerator--><path codeLine="205" d="M1354.06,755.81 C1384.08,797.07 1424.81,853.05 1457.79,898.37 " fill="none" id="Board-BoardGenerator" style="stroke:#A80036;stroke-width:1.0;"/><!--MD5=[7191d366b0d2f5896dacb70cd9a62cf2]
reverse link Board to BoardCell--><path codeLine="206" d="M1141.51,700.51 C936.55,709.5 586.55,744.19 317,871 C308.54,874.98 300.21,879.69 292.1,884.89 " fill="none" id="Board-backto-BoardCell" style="stroke:#A80036;stroke-width:1.0;"/><polygon fill="#FFFFFF" points="1154.8,699.96,1148.6383,696.2138,1142.8104,700.4607,1148.9721,704.2068,1154.8,699.96" style="stroke:#A80036;stroke-width:1.0;"/><!--MD5=[46b22634f8cbed590aa8c07c7d564c65]
link Board to TileEnum--><path codeLine="207" d="M1312,755.81 C1312,789.01 1312,831.74 1312,870.78 " fill="none" id="Board-TileEnum" style="stroke:#A80036;stroke-width:1.0;"/><!--MD5=[2757270878c3d37078ed47d25041e53a]
link BoardCell to Ant--><path codeLine="209" d="M306.4015,1078.0048 C306.4015,1078.0048 313.81,1082.97 317,1085 C397.61,1136.14 494.55,1180.65 574.46,1213.41 " fill="none" id="BoardCell-Ant" style="stroke:#A80036;stroke-width:1.0;"/><polygon fill="#A80036" points="586.63,1218.36,579.8011,1211.263,581.9987,1216.4756,576.7861,1218.6731,586.63,1218.36" style="stroke:#A80036;stroke-width:1.0;"/><line style="stroke:#A80036;stroke-width:1.0;" x1="581.9987" x2="574.585" y1="1216.4756" y2="1213.455"/><polygon fill="#A80036" points="296.58,1071.11,299.1925,1077.8312,306.4015,1078.0048,303.789,1071.2836,296.58,1071.11" style="stroke:#A80036;stroke-width:1.0;"/><!--MD5=[0200628d9e4647e6cfe6572bc570322a]
link Worker to AgeAdult--><path codeLine="211" d="M1086.33,1029.7 C1072.98,1079.23 1052.61,1154.76 1038.17,1208.31 " fill="none" id="Worker-to-AgeAdult" style="stroke:#A80036;stroke-width:1.0;"/><polygon fill="none" points="1044.92,1210.17,1032.95,1227.66,1031.4,1206.53,1044.92,1210.17" style="stroke:#A80036;stroke-width:1.0;"/><!--MD5=[a3c7008f1955ed9247a8437bc184394f]
link Scout to AgeAdult--><path codeLine="212" d="M948.33,1002.48 C960.25,1046.69 986.39,1143.64 1003.85,1208.39 " fill="none" id="Scout-to-AgeAdult" style="stroke:#A80036;stroke-width:1.0;"/><polygon fill="none" points="1010.63,1206.64,1009.07,1227.77,997.11,1210.28,1010.63,1206.64" style="stroke:#A80036;stroke-width:1.0;"/><!--MD5=[be4b449d876d432ed4e4dd7c93c82885]
link Worker to Ant--><path codeLine="214" d="M1050.97,1029.67 C1032.69,1047.74 1011.42,1067.86 991,1085 C971.92,1101.02 934.35,1128.82 893.6,1158.16 " fill="none" id="Worker-to-Ant" style="stroke:#A80036;stroke-width:1.0;"/><polygon fill="none" points="897.57,1163.92,877.24,1169.9,889.41,1152.55,897.57,1163.92" style="stroke:#A80036;stroke-width:1.0;"/><!--MD5=[a1104312d2c57f4555928b5ad402bfc3]
link Scout to Ant--><path codeLine="215" d="M933.41,1002.29 C924.75,1024.43 910.23,1058.24 893,1085 C883.57,1099.66 873.06,1114.38 862.07,1128.77 " fill="none" id="Scout-to-Ant" style="stroke:#A80036;stroke-width:1.0;"/><polygon fill="none" points="867.32,1133.43,849.48,1144.87,856.29,1124.8,867.32,1133.43" style="stroke:#A80036;stroke-width:1.0;"/><!--MD5=[924afd2204e8bb4b1855ac7d8f56da18]
link Soldier to Ant--><path codeLine="216" d="M644.12,1009.25 C653.53,1037.4 668.29,1081.52 683.04,1125.63 " fill="none" id="Soldier-to-Ant" style="stroke:#A80036;stroke-width:1.0;"/><polygon fill="none" points="689.76,1123.64,689.46,1144.83,676.48,1128.08,689.76,1123.64" style="stroke:#A80036;stroke-width:1.0;"/><!--MD5=[645e419ed08253d038c36b143b6036a2]
link SlaveOwner to Ant--><path codeLine="217" d="M808.22,1009.25 C800.08,1037.34 787.31,1081.33 774.55,1125.34 " fill="none" id="SlaveOwner-to-Ant" style="stroke:#A80036;stroke-width:1.0;"/><polygon fill="none" points="781.19,1127.57,768.89,1144.83,767.74,1123.67,781.19,1127.57" style="stroke:#A80036;stroke-width:1.0;"/><!--MD5=[94b692670326e89716e72997b8ddcf2e]
link Queen to Ant--><path codeLine="218" d="M457.99,1016.25 C478.06,1036.78 503.64,1062.58 527,1085 C542.71,1100.08 559.27,1115.67 575.88,1131.11 " fill="none" id="Queen-to-Ant" style="stroke:#A80036;stroke-width:1.0;"/><polygon fill="none" points="580.89,1126.2,590.8,1144.93,571.37,1136.47,580.89,1126.2" style="stroke:#A80036;stroke-width:1.0;"/><!--MD5=[769f9eecf8dc2e4826244ce0d2ca70f7]
@startuml Ant

class Config {
    - {static} Config *instance

    - ...

    + {static} Config get()
}

abstract class Ant {
    - {static} int colonyFood = 0
    
    - BoardCell currentCell
    - int hoursBeforeDeath
    - int foodConsumedEachDay
    - int hoursSinceLastFeeding = 0
    - List<BoardCell> cellTraveledSinceColony
    
    + Ant(int hoursBeforeDeath, int foodConsumedEachDay)

    + void tick()
    + boolean attackAnt(Ant target)

    - void eatFood()
    - void putPheromones()
    - void kill()
}

class Queen {
    - int nbChild = 0
    - boolean wasAssaulted = false
}

abstract class AgeAdult {
    + AgeAdult(int hoursBeforeAdult)

    - int hoursBeforeAdult

    + boolean isAdult()
}

class Worker {
    - double pheromoneAmount = 500
    - double foodCarriedAmount = 0

    - void dropFood()
    - void visitColony()
}

class Scout {
    
}

class Soldier {
    - int hoursSinceColonyVisited = 0
}

class SlaveOwner {
    - int larvaCarried = 0
}

abstract class BoardCell {
    - int posLength
    - int posHeight
    - double pheromoneAmount = 0
    - boolean visited = false
    - int maxAntOnCell = 0
    - List<Ant> antOnCell   

    + BoardCell(int x, int y, int maxAntOnCell)
    + void tick()
    + boolean haveSpace()
    - void pheromoneSpreading()
}

class RockCell {
    
}

class BasicCell {
    - double foodAmount = 0

    + void takeFood(Ant ant)
}

class ColonyCell {
    
}

class Board {
    - BoardCell[][] cells
    - List<ColonyCell> coloniesCells

    + Board(List<BoardCell> cells, List<ColonyCell> coloniesCells)
    
    + List<BoardCell> getNearbyCells(BoardCell cell)
}

class BoardGenerator {
    - BoardCell[][] cells
    - List<ColonyCell> coloniesCell

    + {static} Board generateBoard()

    - void generateRock()
    - void generateClassicFood()
    - void generateBigFood()
    - void generateColony()
}

class Simulation {
    + void runGame()
}

class GUIMain {
    - Board *board;
    - Game *game;
    - SimulationStats *stats;
    - bool waitReleaseGameKey;

    - sf::RenderWindow *window;
    - sf::View simView;
    - sf::View statView;

    - sf::Vector2f oldPos;
    - bool moving;
    - float zoom;
    - float currentZoom;

    - void runUI(sf::Mutex *mutex);
    - void smoothOnKeyPressed();
    - void onClosed();
    - void onMouseButtonPressed(sf::Event event);
    - void onMouseButtonReleased(sf::Event event);
    - void onMouseMoved(sf::Event event);
    - void onMouseWheelScrolled(sf::Event event);
    - void onResized(sf::Event event);
    - void center();
    - void preventOutOfBorder(sf::Vector2f deltaPos);
    - void letterBoxView(float windowWidth, float windowHeight);
    - static sf::Vector2f getMapSize();
}


class Game {
    - bool pause = false;
    - Board *board;
    - SimulationStats *stats;
    - string gnuPlotFile = "gnuplot.txt";
    - string bufferGNUPlot;

    - void tickAnts();
    - void tickQueen();

    + void tickGame();
    + void saveCurrentTick();
    + void logGNUPlot();
    + bool isPause() const;
    + void setPause(bool pause);
}

class SimulationStats {
    - int currentTPS;
    - int wantedTPS;
    - float foodAmount;
    - bool isGameEnded;
    - string endMessage;
    - int workerAmount;
    - int soldierAmount;
    - int scoutAmount;
    - int slaveOwnerAmount;
    - sf::Texture tileSet;
    - sf::Font font;

    - void draw(sf::RenderTarget &target, sf::RenderStates states) const override;
}

enum TileEnum {
    BASIC_FLOOR = 0,
    ROCK_FLOOR = 5,
    COLONY_FLOOR = 9,
    FOOD_LAYER = 10,
    BIG_FOOD_LAYER = 11,
    CLOUD_LAYER = 14,
    QUEEN = 24,
    WORKER_ANT = 15,
    SOLDIER_ANT = 25,
    SCOOT_ANT = 35,
    SLAVEOWNER_ANT = 45,
    FIRST_PHEROMONE_LEVEL = 55
}


RockCell - -|> BoardCell
BasicCell - -|> BoardCell
ColonyCell - -|> BoardCell

Board - -|> Drawable
SimulationStats - -|> Drawable

Simulation - - SimulationStats
Simulation - - Game
Simulation - - Board
GUIMain - - Simulation
Board - - BoardGenerator
Board o- - BoardCell
Board - - TileEnum

BoardCell *- -> Ant

Worker - -|> AgeAdult
Scout - -|> AgeAdult

Worker - -|> Ant
Scout - -|> Ant
Soldier - -|> Ant
SlaveOwner - -|> Ant
Queen - -|> Ant

@enduml

PlantUML version 1.2021.14(Fri Nov 12 17:46:50 CET 2021)
(GPL source distribution)
Java Runtime: Java(TM) SE Runtime Environment
JVM: Java HotSpot(TM) 64-Bit Server VM
Default Encoding: Cp1252
Language: fr
Country: FR
--></g></svg>